<?xml version="1.0" encoding="UTF-8"?>
<svg xmlns="http://www.w3.org/2000/svg" version="1.1" viewBox="0 0 50.41 50.41">
  <defs>
    <style>
      .cls-1 {
        fill: #884fd0;
      }

      .cls-2 {
        fill: #fff;
      }
    </style>
  </defs>
  <g>
    <g id="Layer_1">
      <path class="cls-1" d="M25.2,0c-1.33,0-2.63.1-3.9.3-9.03,1.63-11.77,5.47-11.7,8.19.03,1.04.82,3.17,3.89,3.17,5.06,0,5.98-4.48,13.81-4.36,11.36.18,13.7,8.51,13.7,8.51,0,0-2.67-.18-4.71.21-2.5.48-4.2,1.09-6.74,4.75-2.16,3.13-2.29,4.94-4.66,5.06-.99.05-1.89-.37-2.67-1.84-.56-1.06-.73-2.57-.74-4.44-.04-4.72-.59-6.71-1.37-6.83-1.11-.17-3.21,1.95-4.62,4.76-2.26-.63-4.81-.67-7.94.01,0,0-1.18-5.27-2.53-5.33-1.11-.04-3.64,3.72-4.63,8.49-.27,1.47-.42,2.99-.42,4.54,0,13.92,11.28,25.2,25.2,25.2s25.2-11.28,25.2-25.2S39.12,0,25.2,0Z"/>
      <circle class="cls-2" cx="7.24" cy="23.72" r="2.75"/>
      <circle class="cls-2" cx="15.97" cy="23.72" r="2.75"/>
    </g>
  </g>
</svg>