<?xml version="1.0" encoding="UTF-8"?>
<svg id="Layer_1" xmlns="http://www.w3.org/2000/svg" version="1.1" viewBox="0 0 180 180">
  <!-- Generator: Adobe Illustrator 29.8.2, SVG Export Plug-In . SVG Version: 2.1.1 Build 3)  -->
  <defs>
    <style>
      .st0 {
        fill: #fff;
      }
    </style>
  </defs>
  <rect x="13.09" y="15.09" width="17.22" height="17.22" rx="6.51" ry="6.51"/>
  <rect x="34.39" y="15.09" width="17.22" height="17.22" rx="6.51" ry="6.51"/>
  <rect x="55.69" y="15.09" width="17.22" height="17.22" rx="6.51" ry="6.51"/>
  <rect x="77" y="15.11" width="17.22" height="17.22" rx="6.51" ry="6.51"/>
  <rect x="13.09" y="108.08" width="17.22" height="17.22" rx="6.51" ry="6.51"/>
  <rect x="34.39" y="108.08" width="17.22" height="17.22" rx="6.51" ry="6.51"/>
  <rect x="55.69" y="108.08" width="17.22" height="17.22" rx="6.51" ry="6.51"/>
  <rect x="107.09" y="65.48" width="17.22" height="17.22" rx="6.51" ry="6.51"/>
  <rect x="128.39" y="65.48" width="17.22" height="17.22" rx="6.51" ry="6.51"/>
  <rect x="149.69" y="65.48" width="17.22" height="17.22" rx="6.51" ry="6.51"/>
  <rect x="107.09" y="15.09" width="17.22" height="17.22" rx="6.51" ry="6.51"/>
  <rect x="128.39" y="15.09" width="17.22" height="17.22" rx="6.51" ry="6.51"/>
  <rect x="149.69" y="15.09" width="17.22" height="17.22" rx="6.51" ry="6.51"/>
  <rect x="77" y="108.09" width="17.22" height="17.22" rx="6.51" ry="6.51"/>
  <g>
    <path class="st0" d="M21.7,51.6c-3.63,0-6.59-2.96-6.59-6.59s2.96-6.59,6.59-6.59,6.59,2.96,6.59,6.59-2.96,6.59-6.59,6.59Z"/>
    <path d="M21.7,39.16c3.22,0,5.84,2.62,5.84,5.84s-2.62,5.84-5.84,5.84-5.84-2.62-5.84-5.84,2.62-5.84,5.84-5.84M21.7,37.66c-4.06,0-7.34,3.29-7.34,7.34s3.29,7.34,7.34,7.34,7.34-3.29,7.34-7.34-3.29-7.34-7.34-7.34h0Z"/>
  </g>
  <g>
    <path class="st0" d="M43,51.6c-3.63,0-6.59-2.96-6.59-6.59s2.96-6.59,6.59-6.59,6.59,2.96,6.59,6.59-2.96,6.59-6.59,6.59Z"/>
    <path d="M43,39.16c3.22,0,5.84,2.62,5.84,5.84s-2.62,5.84-5.84,5.84-5.84-2.62-5.84-5.84,2.62-5.84,5.84-5.84M43,37.66c-4.06,0-7.34,3.29-7.34,7.34s3.29,7.34,7.34,7.34,7.34-3.29,7.34-7.34-3.29-7.34-7.34-7.34h0Z"/>
  </g>
  <g>
    <path class="st0" d="M64.31,51.6c-3.63,0-6.59-2.96-6.59-6.59s2.96-6.59,6.59-6.59,6.59,2.96,6.59,6.59-2.96,6.59-6.59,6.59Z"/>
    <path d="M64.31,39.16c3.22,0,5.84,2.62,5.84,5.84s-2.62,5.84-5.84,5.84-5.84-2.62-5.84-5.84,2.62-5.84,5.84-5.84M64.31,37.66c-4.06,0-7.34,3.29-7.34,7.34s3.29,7.34,7.34,7.34,7.34-3.29,7.34-7.34-3.29-7.34-7.34-7.34h0Z"/>
  </g>
  <g>
    <path class="st0" d="M85.61,51.6c-3.63,0-6.59-2.96-6.59-6.59s2.96-6.59,6.59-6.59,6.59,2.96,6.59,6.59-2.96,6.59-6.59,6.59Z"/>
    <path d="M85.61,39.16c3.22,0,5.84,2.62,5.84,5.84s-2.62,5.84-5.84,5.84-5.84-2.62-5.84-5.84,2.62-5.84,5.84-5.84M85.61,37.66c-4.06,0-7.34,3.29-7.34,7.34s3.29,7.34,7.34,7.34,7.34-3.29,7.34-7.34-3.29-7.34-7.34-7.34h0Z"/>
  </g>
  <g>
    <circle class="st0" cx="21.7" cy="66.31" r="6.59"/>
    <path d="M21.7,60.47c3.22,0,5.84,2.62,5.84,5.84s-2.62,5.84-5.84,5.84-5.84-2.62-5.84-5.84,2.62-5.84,5.84-5.84M21.7,58.97c-4.06,0-7.34,3.29-7.34,7.34s3.29,7.34,7.34,7.34,7.34-3.29,7.34-7.34-3.29-7.34-7.34-7.34h0Z"/>
  </g>
  <g>
    <circle class="st0" cx="43" cy="66.31" r="6.59"/>
    <path d="M43,60.47c3.22,0,5.84,2.62,5.84,5.84s-2.62,5.84-5.84,5.84-5.84-2.62-5.84-5.84,2.62-5.84,5.84-5.84M43,58.97c-4.06,0-7.34,3.29-7.34,7.34s3.29,7.34,7.34,7.34,7.34-3.29,7.34-7.34-3.29-7.34-7.34-7.34h0Z"/>
  </g>
  <g>
    <circle class="st0" cx="64.31" cy="66.31" r="6.59"/>
    <path d="M64.31,60.47c3.22,0,5.84,2.62,5.84,5.84s-2.62,5.84-5.84,5.84-5.84-2.62-5.84-5.84,2.62-5.84,5.84-5.84M64.31,58.97c-4.06,0-7.34,3.29-7.34,7.34s3.29,7.34,7.34,7.34,7.34-3.29,7.34-7.34-3.29-7.34-7.34-7.34h0Z"/>
  </g>
  <g>
    <circle class="st0" cx="85.61" cy="66.31" r="6.59"/>
    <path d="M85.61,60.47c3.22,0,5.84,2.62,5.84,5.84s-2.62,5.84-5.84,5.84-5.84-2.62-5.84-5.84,2.62-5.84,5.84-5.84M85.61,58.97c-4.06,0-7.34,3.29-7.34,7.34s3.29,7.34,7.34,7.34,7.34-3.29,7.34-7.34-3.29-7.34-7.34-7.34h0Z"/>
  </g>
  <g>
    <path class="st0" d="M115.69,101.98c-3.63,0-6.59-2.96-6.59-6.59s2.96-6.59,6.59-6.59,6.59,2.96,6.59,6.59-2.96,6.59-6.59,6.59Z"/>
    <path d="M115.69,89.55c3.22,0,5.84,2.62,5.84,5.84s-2.62,5.84-5.84,5.84-5.84-2.62-5.84-5.84,2.62-5.84,5.84-5.84M115.69,88.05c-4.06,0-7.34,3.29-7.34,7.34s3.29,7.34,7.34,7.34,7.34-3.29,7.34-7.34-3.29-7.34-7.34-7.34h0Z"/>
  </g>
  <g>
    <path class="st0" d="M137,101.98c-3.64,0-6.59-2.96-6.59-6.59s2.96-6.59,6.59-6.59,6.59,2.96,6.59,6.59-2.96,6.59-6.59,6.59Z"/>
    <path d="M137,89.55c3.22,0,5.84,2.62,5.84,5.84s-2.62,5.84-5.84,5.84-5.84-2.62-5.84-5.84,2.62-5.84,5.84-5.84M137,88.05c-4.06,0-7.34,3.29-7.34,7.34s3.29,7.34,7.34,7.34,7.34-3.29,7.34-7.34-3.29-7.34-7.34-7.34h0Z"/>
  </g>
  <g>
    <path class="st0" d="M158.3,101.98c-3.64,0-6.59-2.96-6.59-6.59s2.96-6.59,6.59-6.59,6.59,2.96,6.59,6.59-2.96,6.59-6.59,6.59Z"/>
    <path d="M158.3,89.55c3.22,0,5.84,2.62,5.84,5.84s-2.62,5.84-5.84,5.84-5.84-2.62-5.84-5.84,2.62-5.84,5.84-5.84M158.3,88.05c-4.06,0-7.34,3.29-7.34,7.34s3.29,7.34,7.34,7.34,7.34-3.29,7.34-7.34-3.29-7.34-7.34-7.34h0Z"/>
  </g>
  <g>
    <path class="st0" d="M115.69,123.29c-3.63,0-6.59-2.96-6.59-6.59s2.96-6.59,6.59-6.59,6.59,2.96,6.59,6.59-2.96,6.59-6.59,6.59Z"/>
    <path d="M115.69,110.85c3.22,0,5.84,2.62,5.84,5.84s-2.62,5.84-5.84,5.84-5.84-2.62-5.84-5.84,2.62-5.84,5.84-5.84M115.69,109.35c-4.06,0-7.34,3.29-7.34,7.34s3.29,7.34,7.34,7.34,7.34-3.29,7.34-7.34-3.29-7.34-7.34-7.34h0Z"/>
  </g>
  <g>
    <path class="st0" d="M137,123.29c-3.64,0-6.59-2.96-6.59-6.59s2.96-6.59,6.59-6.59,6.59,2.96,6.59,6.59-2.96,6.59-6.59,6.59Z"/>
    <path d="M137,110.85c3.22,0,5.84,2.62,5.84,5.84s-2.62,5.84-5.84,5.84-5.84-2.62-5.84-5.84,2.62-5.84,5.84-5.84M137,109.35c-4.06,0-7.34,3.29-7.34,7.34s3.29,7.34,7.34,7.34,7.34-3.29,7.34-7.34-3.29-7.34-7.34-7.34h0Z"/>
  </g>
  <g>
    <path class="st0" d="M158.3,123.29c-3.64,0-6.59-2.96-6.59-6.59s2.96-6.59,6.59-6.59,6.59,2.96,6.59,6.59-2.96,6.59-6.59,6.59Z"/>
    <path d="M158.3,110.85c3.22,0,5.84,2.62,5.84,5.84s-2.62,5.84-5.84,5.84-5.84-2.62-5.84-5.84,2.62-5.84,5.84-5.84M158.3,109.35c-4.06,0-7.34,3.29-7.34,7.34s3.29,7.34,7.34,7.34,7.34-3.29,7.34-7.34-3.29-7.34-7.34-7.34h0Z"/>
  </g>
  <g>
    <path class="st0" d="M115.69,144.59c-3.63,0-6.59-2.96-6.59-6.59s2.96-6.59,6.59-6.59,6.59,2.96,6.59,6.59-2.96,6.59-6.59,6.59Z"/>
    <path d="M115.69,132.15c3.22,0,5.84,2.62,5.84,5.84s-2.62,5.84-5.84,5.84-5.84-2.62-5.84-5.84,2.62-5.84,5.84-5.84M115.69,130.65c-4.06,0-7.34,3.29-7.34,7.34s3.29,7.34,7.34,7.34,7.34-3.29,7.34-7.34-3.29-7.34-7.34-7.34h0Z"/>
  </g>
  <g>
    <path class="st0" d="M137,144.59c-3.64,0-6.59-2.96-6.59-6.59s2.96-6.59,6.59-6.59,6.59,2.96,6.59,6.59-2.96,6.59-6.59,6.59Z"/>
    <path d="M137,132.15c3.22,0,5.84,2.62,5.84,5.84s-2.62,5.84-5.84,5.84-5.84-2.62-5.84-5.84,2.62-5.84,5.84-5.84M137,130.65c-4.06,0-7.34,3.29-7.34,7.34s3.29,7.34,7.34,7.34,7.34-3.29,7.34-7.34-3.29-7.34-7.34-7.34h0Z"/>
  </g>
  <g>
    <path class="st0" d="M158.3,144.59c-3.64,0-6.59-2.96-6.59-6.59s2.96-6.59,6.59-6.59,6.59,2.96,6.59,6.59-2.96,6.59-6.59,6.59Z"/>
    <path d="M158.3,132.15c3.22,0,5.84,2.62,5.84,5.84s-2.62,5.84-5.84,5.84-5.84-2.62-5.84-5.84,2.62-5.84,5.84-5.84M158.3,130.65c-4.06,0-7.34,3.29-7.34,7.34s3.29,7.34,7.34,7.34,7.34-3.29,7.34-7.34-3.29-7.34-7.34-7.34h0Z"/>
  </g>
  <g>
    <path class="st0" d="M115.69,165.89c-3.63,0-6.59-2.96-6.59-6.59s2.96-6.59,6.59-6.59,6.59,2.96,6.59,6.59-2.96,6.59-6.59,6.59Z"/>
    <path d="M115.69,153.46c3.22,0,5.84,2.62,5.84,5.84s-2.62,5.84-5.84,5.84-5.84-2.62-5.84-5.84,2.62-5.84,5.84-5.84M115.69,151.96c-4.06,0-7.34,3.29-7.34,7.34s3.29,7.34,7.34,7.34,7.34-3.29,7.34-7.34-3.29-7.34-7.34-7.34h0Z"/>
  </g>
  <g>
    <path class="st0" d="M137,165.89c-3.64,0-6.59-2.96-6.59-6.59s2.96-6.59,6.59-6.59,6.59,2.96,6.59,6.59-2.96,6.59-6.59,6.59Z"/>
    <path d="M137,153.46c3.22,0,5.84,2.62,5.84,5.84s-2.62,5.84-5.84,5.84-5.84-2.62-5.84-5.84,2.62-5.84,5.84-5.84M137,151.96c-4.06,0-7.34,3.29-7.34,7.34s3.29,7.34,7.34,7.34,7.34-3.29,7.34-7.34-3.29-7.34-7.34-7.34h0Z"/>
  </g>
  <g>
    <path class="st0" d="M158.3,165.89c-3.64,0-6.59-2.96-6.59-6.59s2.96-6.59,6.59-6.59,6.59,2.96,6.59,6.59-2.96,6.59-6.59,6.59Z"/>
    <path d="M158.3,153.46c3.22,0,5.84,2.62,5.84,5.84s-2.62,5.84-5.84,5.84-5.84-2.62-5.84-5.84,2.62-5.84,5.84-5.84M158.3,151.96c-4.06,0-7.34,3.29-7.34,7.34s3.29,7.34,7.34,7.34,7.34-3.29,7.34-7.34-3.29-7.34-7.34-7.34h0Z"/>
  </g>
  <g>
    <path class="st0" d="M115.69,51.6c-3.63,0-6.59-2.96-6.59-6.59s2.96-6.59,6.59-6.59,6.59,2.96,6.59,6.59-2.96,6.59-6.59,6.59Z"/>
    <path d="M115.69,39.16c3.22,0,5.84,2.62,5.84,5.84s-2.62,5.84-5.84,5.84-5.84-2.62-5.84-5.84,2.62-5.84,5.84-5.84M115.69,37.66c-4.06,0-7.34,3.29-7.34,7.34s3.29,7.34,7.34,7.34,7.34-3.29,7.34-7.34-3.29-7.34-7.34-7.34h0Z"/>
  </g>
  <g>
    <path class="st0" d="M137,51.6c-3.64,0-6.59-2.96-6.59-6.59s2.96-6.59,6.59-6.59,6.59,2.96,6.59,6.59-2.96,6.59-6.59,6.59Z"/>
    <path d="M137,39.16c3.22,0,5.84,2.62,5.84,5.84s-2.62,5.84-5.84,5.84-5.84-2.62-5.84-5.84,2.62-5.84,5.84-5.84M137,37.66c-4.06,0-7.34,3.29-7.34,7.34s3.29,7.34,7.34,7.34,7.34-3.29,7.34-7.34-3.29-7.34-7.34-7.34h0Z"/>
  </g>
  <g>
    <path class="st0" d="M158.3,51.6c-3.64,0-6.59-2.96-6.59-6.59s2.96-6.59,6.59-6.59,6.59,2.96,6.59,6.59-2.96,6.59-6.59,6.59Z"/>
    <path d="M158.3,39.16c3.22,0,5.84,2.62,5.84,5.84s-2.62,5.84-5.84,5.84-5.84-2.62-5.84-5.84,2.62-5.84,5.84-5.84M158.3,37.66c-4.06,0-7.34,3.29-7.34,7.34s3.29,7.34,7.34,7.34,7.34-3.29,7.34-7.34-3.29-7.34-7.34-7.34h0Z"/>
  </g>
  <g>
    <path class="st0" d="M21.7,94.2c-3.63,0-6.59-2.96-6.59-6.59s2.96-6.59,6.59-6.59,6.59,2.96,6.59,6.59-2.96,6.59-6.59,6.59Z"/>
    <path d="M21.7,81.77c3.22,0,5.84,2.62,5.84,5.84s-2.62,5.84-5.84,5.84-5.84-2.62-5.84-5.84,2.62-5.84,5.84-5.84M21.7,80.27c-4.06,0-7.34,3.29-7.34,7.34s3.29,7.34,7.34,7.34,7.34-3.29,7.34-7.34-3.29-7.34-7.34-7.34h0Z"/>
  </g>
  <g>
    <path class="st0" d="M43,94.2c-3.63,0-6.59-2.96-6.59-6.59s2.96-6.59,6.59-6.59,6.59,2.96,6.59,6.59-2.96,6.59-6.59,6.59Z"/>
    <path d="M43,81.77c3.22,0,5.84,2.62,5.84,5.84s-2.62,5.84-5.84,5.84-5.84-2.62-5.84-5.84,2.62-5.84,5.84-5.84M43,80.27c-4.06,0-7.34,3.29-7.34,7.34s3.29,7.34,7.34,7.34,7.34-3.29,7.34-7.34-3.29-7.34-7.34-7.34h0Z"/>
  </g>
  <g>
    <path class="st0" d="M64.31,94.2c-3.63,0-6.59-2.96-6.59-6.59s2.96-6.59,6.59-6.59,6.59,2.96,6.59,6.59-2.96,6.59-6.59,6.59Z"/>
    <path d="M64.31,81.77c3.22,0,5.84,2.62,5.84,5.84s-2.62,5.84-5.84,5.84-5.84-2.62-5.84-5.84,2.62-5.84,5.84-5.84M64.31,80.27c-4.06,0-7.34,3.29-7.34,7.34s3.29,7.34,7.34,7.34,7.34-3.29,7.34-7.34-3.29-7.34-7.34-7.34h0Z"/>
  </g>
  <g>
    <path class="st0" d="M85.61,94.2c-3.63,0-6.59-2.96-6.59-6.59s2.96-6.59,6.59-6.59,6.59,2.96,6.59,6.59-2.96,6.59-6.59,6.59Z"/>
    <path d="M85.61,81.77c3.22,0,5.84,2.62,5.84,5.84s-2.62,5.84-5.84,5.84-5.84-2.62-5.84-5.84,2.62-5.84,5.84-5.84M85.61,80.27c-4.06,0-7.34,3.29-7.34,7.34s3.29,7.34,7.34,7.34,7.34-3.29,7.34-7.34-3.29-7.34-7.34-7.34h0Z"/>
  </g>
  <g>
    <path class="st0" d="M21.69,144.59c-3.63,0-6.59-2.96-6.59-6.59s2.96-6.59,6.59-6.59,6.59,2.96,6.59,6.59-2.96,6.59-6.59,6.59Z"/>
    <path d="M21.69,132.15c3.22,0,5.84,2.62,5.84,5.84s-2.62,5.84-5.84,5.84-5.84-2.62-5.84-5.84,2.62-5.84,5.84-5.84M21.69,130.65c-4.06,0-7.34,3.29-7.34,7.34s3.29,7.34,7.34,7.34,7.34-3.29,7.34-7.34-3.29-7.34-7.34-7.34h0Z"/>
  </g>
  <g>
    <path class="st0" d="M43,144.59c-3.63,0-6.59-2.96-6.59-6.59s2.96-6.59,6.59-6.59,6.59,2.96,6.59,6.59-2.96,6.59-6.59,6.59Z"/>
    <path d="M43,132.15c3.22,0,5.84,2.62,5.84,5.84s-2.62,5.84-5.84,5.84-5.84-2.62-5.84-5.84,2.62-5.84,5.84-5.84M43,130.65c-4.06,0-7.34,3.29-7.34,7.34s3.29,7.34,7.34,7.34,7.34-3.29,7.34-7.34-3.29-7.34-7.34-7.34h0Z"/>
  </g>
  <g>
    <path class="st0" d="M64.3,144.59c-3.63,0-6.59-2.96-6.59-6.59s2.96-6.59,6.59-6.59,6.59,2.96,6.59,6.59-2.96,6.59-6.59,6.59Z"/>
    <path d="M64.3,132.15c3.22,0,5.84,2.62,5.84,5.84s-2.62,5.84-5.84,5.84-5.84-2.62-5.84-5.84,2.62-5.84,5.84-5.84M64.3,130.65c-4.06,0-7.34,3.29-7.34,7.34s3.29,7.34,7.34,7.34,7.34-3.29,7.34-7.34-3.29-7.34-7.34-7.34h0Z"/>
  </g>
  <g>
    <path class="st0" d="M85.61,144.59c-3.63,0-6.59-2.96-6.59-6.59s2.96-6.59,6.59-6.59,6.59,2.96,6.59,6.59-2.96,6.59-6.59,6.59Z"/>
    <path d="M85.61,132.15c3.22,0,5.84,2.62,5.84,5.84s-2.62,5.84-5.84,5.84-5.84-2.62-5.84-5.84,2.62-5.84,5.84-5.84M85.61,130.65c-4.06,0-7.34,3.29-7.34,7.34s3.29,7.34,7.34,7.34,7.34-3.29,7.34-7.34-3.29-7.34-7.34-7.34h0Z"/>
  </g>
  <g>
    <path class="st0" d="M21.69,165.89c-3.63,0-6.59-2.96-6.59-6.59s2.96-6.59,6.59-6.59,6.59,2.96,6.59,6.59-2.96,6.59-6.59,6.59Z"/>
    <path d="M21.69,153.46c3.22,0,5.84,2.62,5.84,5.84s-2.62,5.84-5.84,5.84-5.84-2.62-5.84-5.84,2.62-5.84,5.84-5.84M21.69,151.96c-4.06,0-7.34,3.29-7.34,7.34s3.29,7.34,7.34,7.34,7.34-3.29,7.34-7.34-3.29-7.34-7.34-7.34h0Z"/>
  </g>
  <g>
    <path class="st0" d="M43,165.89c-3.63,0-6.59-2.96-6.59-6.59s2.96-6.59,6.59-6.59,6.59,2.96,6.59,6.59-2.96,6.59-6.59,6.59Z"/>
    <path d="M43,153.46c3.22,0,5.84,2.62,5.84,5.84s-2.62,5.84-5.84,5.84-5.84-2.62-5.84-5.84,2.62-5.84,5.84-5.84M43,151.96c-4.06,0-7.34,3.29-7.34,7.34s3.29,7.34,7.34,7.34,7.34-3.29,7.34-7.34-3.29-7.34-7.34-7.34h0Z"/>
  </g>
  <g>
    <path class="st0" d="M64.3,165.89c-3.63,0-6.59-2.96-6.59-6.59s2.96-6.59,6.59-6.59,6.59,2.96,6.59,6.59-2.96,6.59-6.59,6.59Z"/>
    <path d="M64.3,153.46c3.22,0,5.84,2.62,5.84,5.84s-2.62,5.84-5.84,5.84-5.84-2.62-5.84-5.84,2.62-5.84,5.84-5.84M64.3,151.96c-4.06,0-7.34,3.29-7.34,7.34s3.29,7.34,7.34,7.34,7.34-3.29,7.34-7.34-3.29-7.34-7.34-7.34h0Z"/>
  </g>
  <g>
    <path class="st0" d="M85.61,165.89c-3.63,0-6.59-2.96-6.59-6.59s2.96-6.59,6.59-6.59,6.59,2.96,6.59,6.59-2.96,6.59-6.59,6.59Z"/>
    <path d="M85.61,153.46c3.22,0,5.84,2.62,5.84,5.84s-2.62,5.84-5.84,5.84-5.84-2.62-5.84-5.84,2.62-5.84,5.84-5.84M85.61,151.96c-4.06,0-7.34,3.29-7.34,7.34s3.29,7.34,7.34,7.34,7.34-3.29,7.34-7.34-3.29-7.34-7.34-7.34h0Z"/>
  </g>
</svg>