<?xml version="1.0" encoding="UTF-8"?>
<svg id="Layer_1" xmlns="http://www.w3.org/2000/svg" width="180" height="180" version="1.1" xmlns:xlink="http://www.w3.org/1999/xlink" viewBox="0 0 180 180">
  <!-- Generator: Adobe Illustrator 29.8.2, SVG Export Plug-In . SVG Version: 2.1.1 Build 3)  -->
  <defs>
    <style>
      .st0 {
        fill-opacity: .5;
      }

      .st0, .st1, .st2, .st3 {
        fill: #fff;
      }

      .st4 {
        filter: url(#AI_GaussianBlur_4);
        opacity: .1;
      }

      .st5, .st1, .st6, .st7, .st8, .st9, .st10, .st11, .st12, .st13, .st14, .st15 {
        stroke-miterlimit: 10;
      }

      .st5, .st6, .st7, .st8, .st9, .st16, .st10, .st11, .st17, .st12, .st13, .st14, .st15 {
        fill: none;
      }

      .st5, .st6, .st7, .st10, .st11, .st17, .st13, .st15 {
        stroke-linecap: round;
      }

      .st5, .st11 {
        stroke: #4d4d4d;
      }

      .st5, .st17, .st13 {
        stroke-width: 2px;
      }

      .st18 {
        fill: #be6c22;
      }

      .st1, .st6, .st12 {
        stroke: #666;
      }

      .st6, .st12, .st14 {
        stroke-width: 1.5px;
      }

      .st7 {
        opacity: .5;
      }

      .st7, .st10, .st17, .st13 {
        stroke: #989898;
      }

      .st7, .st11 {
        stroke-width: 3px;
      }

      .st8 {
        stroke-width: 1.46px;
      }

      .st8, .st14 {
        stroke: #000;
      }

      .st9 {
        stroke: #124fa3;
        stroke-width: 2.5px;
      }

      .st3, .st10 {
        display: none;
      }

      .st10 {
        opacity: .33;
        stroke-width: 5px;
      }

      .st11 {
        opacity: .15;
      }

      .st19 {
        clip-path: url(#clippath-1);
      }

      .st17 {
        stroke-linejoin: round;
      }

      .st20 {
        fill: #888;
      }

      .st21 {
        fill: #f68302;
      }

      .st22 {
        opacity: .65;
      }

      .st23 {
        fill: #dcddde;
      }

      .st15 {
        stroke: #555;
      }

      .st24 {
        fill: #124fa3;
      }

      .st25 {
        clip-path: url(#clippath-2);
      }

      .st26 {
        clip-path: url(#clippath);
      }
    </style>
    <clipPath id="clippath">
      <rect class="st16" x="0" y="0" width="180" height="180"/>
    </clipPath>
    <filter id="AI_GaussianBlur_4">
      <feGaussianBlur stdDeviation="1.5"/>
    </filter>
    <clipPath id="clippath-1">
      <circle class="st18" cx="142.461" cy="117.314" r="19.453"/>
    </clipPath>
    <clipPath id="clippath-2">
      <rect class="st23" x="0" width="180" height="15.041"/>
    </clipPath>
  </defs>
  <g id="Masked">
    <g class="st26">
      <g id="brickwall" class="st4">
        <rect class="st3" x="0" y="0" width="180" height="180"/>
        <line class="st14" x1="0" y1="22.512" x2="180" y2="22.512"/>
        <line class="st14" x1="0" y1="36.346" x2="180" y2="36.346"/>
        <line class="st14" x1="0" y1="50.179" x2="180" y2="50.179"/>
        <line class="st14" x1="0" y1="64.012" x2="180" y2="64.012"/>
        <line class="st14" x1="0" y1="77.846" x2="180" y2="77.846"/>
        <line class="st14" x1="0" y1="91.679" x2="180" y2="91.679"/>
        <line class="st14" x1="0" y1="105.512" x2="180" y2="105.512"/>
        <line class="st14" x1="0" y1="119.345" x2="180" y2="119.345"/>
        <line class="st14" x1="0" y1="133.179" x2="180" y2="133.179"/>
        <line class="st14" x1="0" y1="147.012" x2="180" y2="147.012"/>
        <line class="st14" x1="0" y1="160.845" x2="180" y2="160.845"/>
        <line class="st14" x1="0" y1="174.678" x2="180" y2="174.678"/>
        <line class="st8" x1="26.369" y1="22.512" x2="26.369" y2="36.346"/>
        <line class="st8" x1="62.721" y1="22.512" x2="62.721" y2="36.346"/>
        <line class="st8" x1="99.074" y1="22.512" x2="99.074" y2="36.346"/>
        <line class="st8" x1="135.426" y1="22.512" x2="135.426" y2="36.346"/>
        <line class="st8" x1="171.779" y1="22.512" x2="171.779" y2="36.346"/>
        <line class="st8" x1="8.193" y1="36.346" x2="8.193" y2="50.179"/>
        <line class="st8" x1="44.545" y1="36.346" x2="44.545" y2="50.179"/>
        <line class="st8" x1="80.897" y1="36.346" x2="80.897" y2="50.179"/>
        <line class="st8" x1="117.25" y1="36.346" x2="117.25" y2="50.179"/>
        <line class="st8" x1="153.602" y1="36.346" x2="153.602" y2="50.179"/>
        <line class="st8" x1="8.193" y1="8.45" x2="8.193" y2="22.283"/>
        <line class="st8" x1="44.545" y1="8.45" x2="44.545" y2="22.283"/>
        <line class="st8" x1="80.897" y1="8.45" x2="80.897" y2="22.283"/>
        <line class="st8" x1="117.25" y1="8.45" x2="117.25" y2="22.283"/>
        <line class="st8" x1="153.602" y1="8.45" x2="153.602" y2="22.283"/>
        <g>
          <line class="st8" x1="26.369" y1="50.179" x2="26.369" y2="64.012"/>
          <line class="st8" x1="62.721" y1="50.179" x2="62.721" y2="64.012"/>
          <line class="st8" x1="99.074" y1="50.179" x2="99.074" y2="64.012"/>
          <line class="st8" x1="135.426" y1="50.179" x2="135.426" y2="64.012"/>
          <line class="st8" x1="171.779" y1="50.179" x2="171.779" y2="64.012"/>
          <line class="st8" x1="8.193" y1="64.012" x2="8.193" y2="77.846"/>
          <line class="st8" x1="44.545" y1="64.012" x2="44.545" y2="77.846"/>
          <line class="st8" x1="80.897" y1="64.012" x2="80.897" y2="77.846"/>
          <line class="st8" x1="117.25" y1="64.012" x2="117.25" y2="77.846"/>
          <line class="st8" x1="153.602" y1="64.012" x2="153.602" y2="77.846"/>
        </g>
        <g>
          <line class="st8" x1="26.369" y1="77.846" x2="26.369" y2="91.679"/>
          <line class="st8" x1="62.721" y1="77.846" x2="62.721" y2="91.679"/>
          <line class="st8" x1="99.074" y1="77.846" x2="99.074" y2="91.679"/>
          <line class="st8" x1="135.426" y1="77.846" x2="135.426" y2="91.679"/>
          <line class="st8" x1="171.779" y1="77.846" x2="171.779" y2="91.679"/>
          <line class="st8" x1="8.193" y1="91.679" x2="8.193" y2="105.512"/>
          <line class="st8" x1="44.545" y1="91.679" x2="44.545" y2="105.512"/>
          <line class="st8" x1="80.897" y1="91.679" x2="80.897" y2="105.512"/>
          <line class="st8" x1="117.25" y1="91.679" x2="117.25" y2="105.512"/>
          <line class="st8" x1="153.602" y1="91.679" x2="153.602" y2="105.512"/>
        </g>
        <g>
          <line class="st8" x1="26.369" y1="105.512" x2="26.369" y2="119.345"/>
          <line class="st8" x1="62.721" y1="105.512" x2="62.721" y2="119.345"/>
          <line class="st8" x1="99.074" y1="105.512" x2="99.074" y2="119.345"/>
          <line class="st8" x1="135.426" y1="105.512" x2="135.426" y2="119.345"/>
          <line class="st8" x1="171.779" y1="105.512" x2="171.779" y2="119.345"/>
          <line class="st8" x1="8.193" y1="119.345" x2="8.193" y2="133.179"/>
          <line class="st8" x1="44.545" y1="119.345" x2="44.545" y2="133.179"/>
          <line class="st8" x1="80.897" y1="119.345" x2="80.897" y2="133.179"/>
          <line class="st8" x1="117.25" y1="119.345" x2="117.25" y2="133.179"/>
          <line class="st8" x1="153.602" y1="119.345" x2="153.602" y2="133.179"/>
        </g>
        <g>
          <line class="st8" x1="26.369" y1="133.179" x2="26.369" y2="147.012"/>
          <line class="st8" x1="62.721" y1="133.179" x2="62.721" y2="147.012"/>
          <line class="st8" x1="99.074" y1="133.179" x2="99.074" y2="147.012"/>
          <line class="st8" x1="135.426" y1="133.179" x2="135.426" y2="147.012"/>
          <line class="st8" x1="171.779" y1="133.179" x2="171.779" y2="147.012"/>
          <line class="st8" x1="8.193" y1="147.012" x2="8.193" y2="160.845"/>
          <line class="st8" x1="44.545" y1="147.012" x2="44.545" y2="160.845"/>
          <line class="st8" x1="80.897" y1="147.012" x2="80.897" y2="160.845"/>
          <line class="st8" x1="117.25" y1="147.012" x2="117.25" y2="160.845"/>
          <line class="st8" x1="153.602" y1="147.012" x2="153.602" y2="160.845"/>
        </g>
        <g>
          <line class="st8" x1="26.369" y1="160.845" x2="26.369" y2="174.678"/>
          <line class="st8" x1="62.721" y1="160.845" x2="62.721" y2="174.678"/>
          <line class="st8" x1="99.074" y1="160.845" x2="99.074" y2="174.678"/>
          <line class="st8" x1="135.426" y1="160.845" x2="135.426" y2="174.678"/>
          <line class="st8" x1="171.779" y1="160.845" x2="171.779" y2="174.678"/>
          <line class="st8" x1="8.193" y1="174.678" x2="8.193" y2="188.512"/>
          <line class="st8" x1="44.545" y1="174.678" x2="44.545" y2="188.512"/>
          <line class="st8" x1="80.897" y1="174.678" x2="80.897" y2="188.512"/>
          <line class="st8" x1="117.25" y1="174.678" x2="117.25" y2="188.512"/>
          <line class="st8" x1="153.602" y1="174.678" x2="153.602" y2="188.512"/>
        </g>
      </g>
      <g>
        <circle class="st18" cx="142.461" cy="117.314" r="19.453"/>
        <g class="st19">
          <ellipse class="st21" cx="146.917" cy="114.439" rx="18.417" ry="18.924" transform="translate(-37.889 137.404) rotate(-45)"/>
          <path class="st0" d="M136.77,106.73c-.155,1.443-.201,3.033-.119,4.713-1.413.329-2.781.663-4.109,1.008.051-1.701.287-3.319.684-4.809,1.154-.315,2.336-.623,3.544-.912Z"/>
          <ellipse class="st2" cx="152.128" cy="109.625" rx="1.5" ry="1.937" transform="translate(-35.38 110.85) rotate(-36.151)"/>
        </g>
      </g>
      <g>
        <rect class="st23" x="0" width="180" height="15.041"/>
        <g class="st25">
          <g>
            <line class="st1" x1="14.85" y1="5.986" x2="5.795" y2="15.041"/>
            <line class="st1" x1="21.143" y1="5.986" x2="12.088" y2="15.041"/>
            <line class="st1" x1="27.436" y1="5.986" x2="18.38" y2="15.041"/>
            <line class="st1" x1="33.728" y1="5.986" x2="24.673" y2="15.041"/>
            <line class="st1" x1="40.021" y1="5.986" x2="30.966" y2="15.041"/>
            <line class="st1" x1="46.313" y1="5.986" x2="37.258" y2="15.041"/>
            <line class="st1" x1="52.606" y1="5.986" x2="43.551" y2="15.041"/>
            <line class="st1" x1="58.899" y1="5.986" x2="49.843" y2="15.041"/>
            <line class="st1" x1="65.191" y1="5.986" x2="56.136" y2="15.041"/>
            <line class="st1" x1="71.484" y1="5.986" x2="62.429" y2="15.041"/>
            <line class="st1" x1="77.776" y1="5.986" x2="68.721" y2="15.041"/>
            <line class="st1" x1="84.069" y1="5.986" x2="75.014" y2="15.041"/>
            <line class="st1" x1="90.362" y1="5.986" x2="81.307" y2="15.041"/>
            <line class="st1" x1="96.654" y1="5.986" x2="87.599" y2="15.041"/>
            <line class="st1" x1="102.947" y1="5.986" x2="93.892" y2="15.041"/>
            <line class="st1" x1="109.239" y1="5.986" x2="100.184" y2="15.041"/>
            <line class="st1" x1="115.532" y1="5.986" x2="106.477" y2="15.041"/>
            <line class="st1" x1="121.825" y1="5.986" x2="112.77" y2="15.041"/>
            <line class="st1" x1="128.117" y1="5.986" x2="119.062" y2="15.041"/>
            <line class="st1" x1="134.41" y1="5.986" x2="125.355" y2="15.041"/>
            <line class="st1" x1="140.702" y1="5.986" x2="131.647" y2="15.041"/>
            <line class="st1" x1="146.995" y1="5.986" x2="137.94" y2="15.041"/>
            <line class="st1" x1="153.288" y1="5.986" x2="144.233" y2="15.041"/>
            <line class="st1" x1="159.58" y1="5.986" x2="150.525" y2="15.041"/>
            <line class="st1" x1="165.873" y1="5.986" x2="156.818" y2="15.041"/>
            <line class="st1" x1="172.166" y1="5.986" x2="163.11" y2="15.041"/>
            <line class="st1" x1="178.458" y1="5.986" x2="169.403" y2="15.041"/>
            <line class="st1" x1="184.751" y1="5.986" x2="175.696" y2="15.041"/>
            <line class="st1" x1="8.558" y1="5.986" x2="-.497" y2="15.041"/>
            <line class="st1" x1="2.265" y1="5.986" x2="-6.79" y2="15.041"/>
          </g>
        </g>
      </g>
      <line class="st12" x1="0" y1="15.041" x2="180" y2="15.041"/>
      <g>
        <path class="st5" d="M90,21.14l3.006,5.509c2.093,3.839,11.708-.404,12.136,3.082"/>
        <path class="st5" d="M94.866,48.938c-.894-1.639,2.822-4.55,6.836-6.347,5.475-2.451,10.613-.988,12.078,1.697"/>
        <path class="st5" d="M90.101,40.203c-.894-1.639,2.822-4.55,6.836-6.347,5.475-2.451,10.613-.988,12.078,1.697"/>
        <path class="st5" d="M99.63,57.673c-.894-1.639,2.822-4.55,6.836-6.347,5.475-2.451,10.613-.988,12.078,1.697"/>
        <path class="st5" d="M104.395,66.408c-.894-1.639,2.822-4.55,6.836-6.347,5.475-2.451,10.613-.988,12.078,1.697"/>
        <path class="st5" d="M109.16,75.143c-.894-1.639,2.822-4.55,6.836-6.347,5.475-2.451,10.613-.988,12.078,1.697"/>
        <path class="st5" d="M113.924,83.878c-.894-1.639,2.822-4.55,6.836-6.347,5.475-2.451,10.613-.988,12.078,1.697"/>
        <path class="st5" d="M118.689,92.613c-.894-1.639,2.822-4.55,6.836-6.347,5.475-2.451,9.874-1.963,11.339.722"/>
        <path class="st13" d="M94.866,48.938c.894,1.639,5.353.091,9.037-2.311,5.025-3.276,6.577-8.388,5.112-11.074"/>
        <path class="st13" d="M99.63,57.673c.894,1.639,5.353.091,9.037-2.311,5.025-3.276,6.577-8.388,5.112-11.074"/>
        <path class="st13" d="M104.395,66.408c.894,1.639,5.353.091,9.037-2.311,5.025-3.276,6.577-8.388,5.112-11.074"/>
        <path class="st13" d="M109.16,75.143c.894,1.639,5.353.091,9.037-2.311,5.025-3.276,6.577-8.388,5.112-11.074"/>
        <path class="st13" d="M113.924,83.878c.894,1.639,5.353.091,9.037-2.311,5.025-3.276,6.577-8.388,5.112-11.074"/>
        <path class="st13" d="M118.689,92.613c.894,1.639,5.353.091,9.037-2.311,5.025-3.276,6.577-8.388,5.112-11.074"/>
        <path class="st13" d="M90.101,40.203c.894,1.639,5.353.091,9.037-2.311,4.013-2.616,6.078-5.67,6.002-8.162"/>
        <path class="st17" d="M136.863,86.988c1.465,2.685-7.142,6.972-5.682,9.648l3.282,6.017"/>
      </g>
      <g class="st22">
        <path class="st0" d="M123.443,92.613s-.432.187-.902.341-.877.211-.877.211c0,0-.116-.121-.118-.346-.002-.23.095-.441.095-.441,0,0,.436-.109.909-.263s.673-.227.673-.227c0,0,.002.167.051.351.051.192.17.374.17.374Z"/>
        <path class="st0" d="M118.814,83.823s-.429.192-.898.351-.875.221-.875.221c0,0-.117-.12-.122-.345-.005-.23.09-.442.09-.442,0,0,.434-.114.905-.274s.67-.234.67-.234c0,0,.004.167.055.35.053.192.174.372.174.372Z"/>
        <path class="st0" d="M114.186,75.033s-.427.197-.894.362-.872.231-.872.231c0,0-.118-.118-.126-.343-.007-.23.085-.443.085-.443,0,0,.433-.119.902-.284s.667-.242.667-.242c0,0,.006.167.059.349.055.191.178.37.178.37Z"/>
        <path class="st0" d="M109.557,66.242s-.425.202-.889.372-.869.241-.869.241c0,0-.12-.117-.13-.342-.01-.229.08-.444.08-.444,0,0,.431-.124.898-.295s.664-.25.664-.25c0,0,.008.167.063.349.058.19.183.368.183.368Z"/>
        <path class="st0" d="M104.929,57.452s-.422.207-.885.382-.866.251-.866.251c0,0-.121-.116-.134-.34-.013-.229.074-.445.074-.445,0,0,.43-.129.895-.305s.661-.258.661-.258c0,0,.01.167.067.348.06.19.187.366.187.366Z"/>
        <path class="st0" d="M100.3,48.662s-.42.212-.881.393-.863.261-.863.261c0,0-.122-.114-.138-.339-.015-.229.069-.445.069-.445,0,0,.428-.134.892-.316s.658-.265.658-.265c0,0,.012.167.071.347.062.189.191.364.191.364Z"/>
        <path class="st0" d="M95.672,39.872s-.418.217-.876.403-.861.271-.861.271c0,0-.124-.113-.142-.337-.018-.229.064-.446.064-.446,0,0,.427-.139.888-.326s.655-.273.655-.273c0,0,.014.167.075.347.064.188.196.362.196.362Z"/>
      </g>
      <g id="Spline">
        <path class="st10" d="M71.941,152.23c18.635-12.148,24.389-31.108,18.958-41.066-5.432-9.958-24.488-15.384-44.79-6.293-14.885,6.665-28.664,17.459-25.349,23.537,3.315,6.077,19.85.336,33.512-8.57,18.635-12.148,24.389-31.108,18.958-41.066-5.432-9.958-24.488-15.384-44.79-6.293"/>
        <path class="st7" d="M89.453,184.577c18.635-12.148,24.389-31.108,18.958-41.066-5.432-9.958-24.488-15.384-44.79-6.293-14.885,6.665-28.664,17.459-25.349,23.537,3.315,6.077,19.85.336,33.512-8.57"/>
        <path class="st11" d="M28.439,72.479C13.554,79.143-.225,89.938,3.09,96.015c3.315,6.077,19.85.336,33.512-8.57,18.635-12.148,24.389-31.108,18.958-41.066-5.432-9.958-24.488-15.384-44.79-6.293"/>
        <path class="st9" d="M71.941,152.23c18.635-12.148,24.389-31.108,18.958-41.066-5.432-9.958-24.488-15.384-44.79-6.293-14.885,6.665-28.664,17.459-25.349,23.537,3.315,6.077,19.85.336,33.512-8.57,18.635-12.148,24.389-31.108,18.958-41.066-5.432-9.958-24.488-15.384-44.79-6.293"/>
        <line class="st14" x1="31.223" y1="111.536" x2="46.108" y2="104.871"/>
        <line class="st14" x1="40.61" y1="128.748" x2="54.272" y2="119.837"/>
        <line class="st14" x1="24.075" y1="134.44" x2="17.444" y2="122.33"/>
        <g>
          <rect class="st2" x="43.357" y="102.131" width="5.5" height="5.5"/>
          <path d="M48.107,102.88v4h-4v-4h4M49.607,101.38h-7v7h7v-7h0Z"/>
        </g>
        <rect class="st24" x="24.85" y="69.116" width="7" height="7"/>
        <rect class="st24" x="69.755" y="75.32" width="7" height="7"/>
        <g>
          <rect class="st2" x="51.522" y="117.102" width="5.5" height="5.5"/>
          <path d="M56.272,117.852v4h-4v-4h4M57.772,116.352h-7v7h7v-7h0Z"/>
        </g>
        <g>
          <rect class="st2" x="18.009" y="125.635" width="5.5" height="5.5"/>
          <path d="M22.759,126.385v4h-4v-4h4M24.259,124.885h-7v7h7v-7h0Z"/>
        </g>
        <circle cx="31.223" cy="111.536" r="3"/>
        <circle cx="17.444" cy="122.33" r="3"/>
        <rect class="st24" x="87.39" y="107.675" width="7" height="7"/>
        <rect class="st24" x="68.423" y="148.767" width="7" height="7"/>
        <circle cx="40.61" cy="128.748" r="3"/>
        <circle cx="24.075" cy="134.44" r="3"/>
      </g>
      <path class="st20" d="M83.9,15.04v7.63c0,2.52,2.05,4.57,4.57,4.57h3.06c2.52,0,4.57-2.05,4.57-4.57v-7.63h-12.2ZM90,23.3c-1.19,0-2.16-.97-2.16-2.16s.97-2.16,2.16-2.16,2.16.97,2.16,2.16-.97,2.16-2.16,2.16Z"/>
      <path class="st6" d="M83.902,15.041h12.197v7.628c0,2.522-2.047,4.569-4.569,4.569h-3.059c-2.522,0-4.569-2.047-4.569-4.569v-7.628h0Z"/>
      <circle class="st15" cx="90" cy="21.14" r="2.161"/>
      <path class="st5" d="M90,21.14l-2.115,3.251"/>
    </g>
  </g>
</svg>