<?xml version="1.0" encoding="UTF-8"?>
<svg xmlns="http://www.w3.org/2000/svg" version="1.1" xmlns:xlink="http://www.w3.org/1999/xlink" viewBox="0 0 184.2 183.4">
  <defs>
    <style>
      .cls-1 {
        clip-path: url(#clippath-34);
      }

      .cls-2 {
        clip-path: url(#clippath-21);
      }

      .cls-3 {
        clip-path: url(#clippath-6);
      }

      .cls-4 {
        clip-path: url(#clippath-7);
      }

      .cls-5 {
        clip-path: url(#clippath-17);
      }

      .cls-6, .cls-7, .cls-8, .cls-9, .cls-10 {
        fill: none;
      }

      .cls-6, .cls-8 {
        stroke: #000;
        stroke-miterlimit: 10;
      }

      .cls-11 {
        clip-path: url(#clippath-31);
      }

      .cls-12 {
        clip-path: url(#clippath-15);
      }

      .cls-13 {
        clip-path: url(#clippath-33);
      }

      .cls-14 {
        clip-path: url(#clippath-18);
      }

      .cls-15 {
        clip-path: url(#clippath-4);
      }

      .cls-16 {
        clip-path: url(#clippath-22);
      }

      .cls-17 {
        clip-path: url(#clippath-23);
      }

      .cls-18 {
        fill: #be6c22;
      }

      .cls-19 {
        clip-path: url(#clippath-9);
      }

      .cls-20 {
        clip-path: url(#clippath-10);
      }

      .cls-21 {
        fill: #fff;
      }

      .cls-22 {
        clip-path: url(#clippath-25);
      }

      .cls-23 {
        clip-path: url(#clippath-27);
      }

      .cls-24 {
        clip-path: url(#clippath-11);
      }

      .cls-25 {
        clip-path: url(#clippath-36);
      }

      .cls-26 {
        clip-path: url(#clippath-35);
      }

      .cls-27 {
        clip-path: url(#clippath-28);
      }

      .cls-28 {
        clip-path: url(#clippath-1);
      }

      .cls-8 {
        stroke-width: 2px;
      }

      .cls-29 {
        fill: #6dbd45;
      }

      .cls-30 {
        clip-path: url(#clippath-5);
      }

      .cls-31 {
        clip-path: url(#clippath-20);
      }

      .cls-32 {
        clip-path: url(#clippath-8);
      }

      .cls-33 {
        clip-path: url(#clippath-3);
      }

      .cls-34 {
        clip-path: url(#clippath-26);
      }

      .cls-35 {
        clip-path: url(#clippath-12);
      }

      .cls-36 {
        clip-path: url(#clippath-14);
      }

      .cls-9 {
        stroke: #6d6e70;
        stroke-width: 1.5px;
      }

      .cls-9, .cls-10 {
        stroke-linecap: round;
        stroke-linejoin: round;
      }

      .cls-37 {
        clip-path: url(#clippath-30);
      }

      .cls-38 {
        clip-path: url(#clippath-19);
      }

      .cls-39 {
        clip-path: url(#clippath-32);
      }

      .cls-10 {
        stroke: #fff;
      }

      .cls-40 {
        clip-path: url(#clippath-16);
      }

      .cls-41 {
        clip-path: url(#clippath-2);
      }

      .cls-42 {
        clip-path: url(#clippath-29);
      }

      .cls-43 {
        clip-path: url(#clippath-13);
      }

      .cls-44 {
        fill: #f68302;
      }

      .cls-45 {
        clip-path: url(#clippath-24);
      }

      .cls-46 {
        clip-path: url(#clippath);
      }

      .cls-47 {
        opacity: .8;
      }
    </style>
    <clipPath id="clippath">
      <rect class="cls-7" width="184.2" height="183.4"/>
    </clipPath>
    <clipPath id="clippath-1">
      <rect class="cls-7" width="184.2" height="183.4"/>
    </clipPath>
    <clipPath id="clippath-2">
      <rect class="cls-7" width="184.2" height="183.4"/>
    </clipPath>
    <clipPath id="clippath-3">
      <rect class="cls-7" width="184.2" height="183.4"/>
    </clipPath>
    <clipPath id="clippath-4">
      <rect class="cls-7" x="49.49" y="78.91" width="5.06" height="5.91"/>
    </clipPath>
    <clipPath id="clippath-5">
      <rect class="cls-7" width="184.2" height="183.4"/>
    </clipPath>
    <clipPath id="clippath-6">
      <rect class="cls-7" width="184.2" height="183.4"/>
    </clipPath>
    <clipPath id="clippath-7">
      <rect class="cls-7" width="184.2" height="183.4"/>
    </clipPath>
    <clipPath id="clippath-8">
      <rect class="cls-7" width="184.2" height="183.4"/>
    </clipPath>
    <clipPath id="clippath-9">
      <rect class="cls-7" width="184.2" height="183.4"/>
    </clipPath>
    <clipPath id="clippath-10">
      <rect class="cls-7" width="184.2" height="183.4"/>
    </clipPath>
    <clipPath id="clippath-11">
      <rect class="cls-7" width="184.2" height="183.4"/>
    </clipPath>
    <clipPath id="clippath-12">
      <rect class="cls-7" width="184.2" height="183.4"/>
    </clipPath>
    <clipPath id="clippath-13">
      <rect class="cls-7" width="184.2" height="183.4"/>
    </clipPath>
    <clipPath id="clippath-14">
      <rect class="cls-7" width="184.2" height="183.4"/>
    </clipPath>
    <clipPath id="clippath-15">
      <rect class="cls-7" width="184.2" height="183.4"/>
    </clipPath>
    <clipPath id="clippath-16">
      <rect class="cls-7" width="184.2" height="183.4"/>
    </clipPath>
    <clipPath id="clippath-17">
      <rect class="cls-7" width="184.2" height="183.4"/>
    </clipPath>
    <clipPath id="clippath-18">
      <rect class="cls-7" width="184.2" height="183.4"/>
    </clipPath>
    <clipPath id="clippath-19">
      <rect class="cls-7" width="184.2" height="183.4"/>
    </clipPath>
    <clipPath id="clippath-20">
      <rect class="cls-7" width="184.2" height="183.4"/>
    </clipPath>
    <clipPath id="clippath-21">
      <rect class="cls-7" width="184.2" height="183.4"/>
    </clipPath>
    <clipPath id="clippath-22">
      <rect class="cls-7" width="184.2" height="183.4"/>
    </clipPath>
    <clipPath id="clippath-23">
      <rect class="cls-7" width="184.2" height="183.4"/>
    </clipPath>
    <clipPath id="clippath-24">
      <rect class="cls-7" width="184.2" height="183.4"/>
    </clipPath>
    <clipPath id="clippath-25">
      <rect class="cls-7" width="184.2" height="183.4"/>
    </clipPath>
    <clipPath id="clippath-26">
      <rect class="cls-7" width="184.2" height="183.4"/>
    </clipPath>
    <clipPath id="clippath-27">
      <rect class="cls-7" width="184.2" height="183.4"/>
    </clipPath>
    <clipPath id="clippath-28">
      <rect class="cls-7" width="184.2" height="183.4"/>
    </clipPath>
    <clipPath id="clippath-29">
      <rect class="cls-7" width="184.2" height="183.4"/>
    </clipPath>
    <clipPath id="clippath-30">
      <rect class="cls-7" width="184.2" height="183.4"/>
    </clipPath>
    <clipPath id="clippath-31">
      <rect class="cls-7" width="184.2" height="183.4"/>
    </clipPath>
    <clipPath id="clippath-32">
      <rect class="cls-7" width="184.2" height="183.4"/>
    </clipPath>
    <clipPath id="clippath-33">
      <rect class="cls-7" width="184.2" height="183.4"/>
    </clipPath>
    <clipPath id="clippath-34">
      <rect class="cls-7" width="184.2" height="183.4"/>
    </clipPath>
    <clipPath id="clippath-35">
      <rect class="cls-7" width="184.2" height="183.4"/>
    </clipPath>
    <clipPath id="clippath-36">
      <rect class="cls-7" width="184.2" height="183.4"/>
    </clipPath>
  </defs>
  <!-- Generator: Adobe Illustrator 28.6.0, SVG Export Plug-In . SVG Version: 1.2.0 Build 709)  -->
  <g>
    <g id="Layer_1">
      <g class="cls-46">
        <g>
          <g class="cls-28">
            <path class="cls-44" d="M40.6,72.2c11.1,0,20.1,9,20.1,20.1s-9,20.1-20.1,20.1-20.1-9-20.1-20.1,9-20.1,20.1-20.1"/>
          </g>
          <g class="cls-41">
            <path class="cls-18" d="M45.9,108.2c-11.1,0-20.1-9-20.1-20.1,0-5.6,1.94-9.83,5.14-13.43-6.3,3.4-10.44,9.93-10.44,17.63,0,11.1,9,20.1,20.1,20.1,3.54,0,6.2-.8,8.9-2.1,2.7-1.3,4.3-2.7,5.9-4.5-2.8,1.5-6.1,2.4-9.6,2.4h.1Z"/>
          </g>
          <g class="cls-33">
            <g class="cls-47">
              <g class="cls-15">
                <path class="cls-21" d="M49.88,79.1c.74-.57,2.3.2,3.49,1.72,1.19,1.53,1.54,3.23.8,3.81-.74.58-2.3-.2-3.49-1.72-1.19-1.53-1.54-3.23-.8-3.81"/>
              </g>
            </g>
          </g>
          <g class="cls-30">
            <path class="cls-9" d="M40.6,13.5v6.2c-9.2,0-11,3-11,4.4s1.8,6,11,6,8.9-1.1,8.9-2.6-2.8-2.6-8.9-2.6c-9.2,0-11,4.5-11,6s1.8,6,11,6,8.9-1.1,8.9-2.6-2.8-2.6-8.9-2.6c-9.2,0-11,4.5-11,6s1.8,6,11,6,8.9-1.1,8.9-2.6-2.8-2.6-8.9-2.6c-9.2,0-11,4.5-11,6s1.8,6,11,6,8.9-1.1,8.9-2.6-2.8-2.6-8.9-2.6c-9.2,0-11,4.5-11,6s1.8,6,11,6,8.9-1.1,8.9-2.6-2.8-2.6-8.9-2.6c-9.2,0-11,4.5-11,6s1.8,6,11,6,8.9-1.1,8.9-2.6-2.8-2.6-8.9-2.6c-9.2,0-11,4.5-11,6s1.8,4.5,11,4.5v6.3"/>
          </g>
          <g class="cls-3">
            <line class="cls-8" y1="13.5" x2="184.2" y2="13.5"/>
          </g>
          <g class="cls-4">
            <line class="cls-6" x1="-3.4" y1="13.5" x2="4.7" y2="5.3"/>
          </g>
          <g class="cls-32">
            <line class="cls-6" x1="3.8" y1="13.5" x2="12" y2="5.3"/>
          </g>
          <g class="cls-19">
            <line class="cls-6" x1="11.1" y1="13.5" x2="19.2" y2="5.3"/>
          </g>
          <g class="cls-20">
            <line class="cls-6" x1="18.3" y1="13.5" x2="26.5" y2="5.3"/>
          </g>
          <g class="cls-24">
            <line class="cls-6" x1="25.6" y1="13.5" x2="33.7" y2="5.3"/>
          </g>
          <g class="cls-35">
            <line class="cls-6" x1="32.8" y1="13.5" x2="41" y2="5.3"/>
          </g>
          <g class="cls-43">
            <line class="cls-6" x1="40.1" y1="13.5" x2="48.2" y2="5.3"/>
          </g>
          <g class="cls-36">
            <line class="cls-6" x1="47.3" y1="13.5" x2="55.5" y2="5.3"/>
          </g>
          <g class="cls-12">
            <line class="cls-6" x1="54.6" y1="13.5" x2="62.7" y2="5.3"/>
          </g>
          <g class="cls-40">
            <line class="cls-6" x1="61.8" y1="13.5" x2="70" y2="5.3"/>
          </g>
          <g class="cls-5">
            <line class="cls-6" x1="69.1" y1="13.5" x2="77.2" y2="5.3"/>
          </g>
          <g class="cls-14">
            <line class="cls-6" x1="76.3" y1="13.5" x2="84.5" y2="5.3"/>
          </g>
          <g class="cls-38">
            <line class="cls-6" x1="83.6" y1="13.5" x2="91.8" y2="5.3"/>
          </g>
          <g class="cls-31">
            <line class="cls-6" x1="90.8" y1="13.5" x2="99" y2="5.3"/>
          </g>
          <g class="cls-2">
            <line class="cls-6" x1="98.1" y1="13.5" x2="106.3" y2="5.3"/>
          </g>
          <g class="cls-16">
            <line class="cls-6" x1="105.3" y1="13.5" x2="113.5" y2="5.3"/>
          </g>
          <g class="cls-17">
            <line class="cls-6" x1="112.6" y1="13.5" x2="120.8" y2="5.3"/>
          </g>
          <g class="cls-45">
            <line class="cls-6" x1="119.9" y1="13.5" x2="128" y2="5.3"/>
          </g>
          <g class="cls-22">
            <line class="cls-6" x1="127.1" y1="13.5" x2="135.3" y2="5.3"/>
          </g>
          <g class="cls-34">
            <line class="cls-6" x1="134.4" y1="13.5" x2="142.5" y2="5.3"/>
          </g>
          <g class="cls-23">
            <line class="cls-6" x1="148.9" y1="13.5" x2="157" y2="5.3"/>
          </g>
          <g class="cls-27">
            <line class="cls-6" x1="156.1" y1="13.5" x2="164.3" y2="5.3"/>
          </g>
          <g class="cls-42">
            <line class="cls-6" x1="141.6" y1="13.5" x2="149.8" y2="5.3"/>
          </g>
          <g class="cls-37">
            <line class="cls-6" x1="163.4" y1="13.5" x2="171.5" y2="5.3"/>
          </g>
          <g class="cls-11">
            <line class="cls-6" x1="170.6" y1="13.5" x2="178.8" y2="5.3"/>
          </g>
          <g class="cls-39">
            <line class="cls-6" x1="177.9" y1="13.5" x2="186" y2="5.3"/>
          </g>
          <g class="cls-13">
            <path d="M176.9,68.1l-8.7,22.3s-5-2.5-15.9-2.8c-8.3-.2-13.7,2-15.3,2.6l-10.1-20.3c-.6-1.3-2.5-.8-2.5.6v46.4c0,3.5-3.2,6.1-6.6,5.5-5.3-1-13-2.2-20.7-2.2-12.6,0-24.3,9.1-29,19.5-8.4,18.5,4.9,30.6,4.9,30.6h-39c-7.7,0-8.7,9.1-8.7,9.1h150.7c2.1,0,3.8-1.7,3.8-3.8v-107.2c0-1.6-2.2-2-2.8-.5v.2h-.1Z"/>
          </g>
          <g class="cls-1">
            <path class="cls-29" d="M143.1,104.3c3.15,0,5.7,2.55,5.7,5.7s-2.55,5.7-5.7,5.7-5.7-2.55-5.7-5.7c0-3.15,2.55-5.7,5.7-5.7"/>
          </g>
          <g class="cls-26">
            <path class="cls-29" d="M162.1,104.3c3.15,0,5.7,2.55,5.7,5.7s-2.55,5.7-5.7,5.7-5.7-2.55-5.7-5.7c0-3.15,2.55-5.7,5.7-5.7"/>
          </g>
          <g class="cls-25">
            <path class="cls-10" d="M94.7,138.2c1.1-.3,20.6-12.7,33.5-.3,4.3,4.1,3.5,11.4-1.7,18.3-5.2,6.9-18.8,11.1-24.7,12.7,5.8.2,7.14,1.16,20.4-.6,6.01-.8,8.2-.5,12.8,0s11.1,4.2,11.1,11.3"/>
          </g>
        </g>
      </g>
    </g>
  </g>
</svg>