<?xml version="1.0" encoding="UTF-8"?>
<svg id="Layer_1" xmlns="http://www.w3.org/2000/svg" width="360" height="360" version="1.1" xmlns:xlink="http://www.w3.org/1999/xlink" viewBox="0 0 360 360">
  <!-- Generator: Adobe Illustrator 29.8.2, SVG Export Plug-In . SVG Version: 2.1.1 Build 3)  -->
  <defs>
    <style>
      .st0 {
        fill: #658614;
      }

      .st1, .st2, .st3, .st4, .st5, .st6, .st7 {
        stroke: #593c25;
        stroke-miterlimit: 10;
      }

      .st1, .st8 {
        fill: #593c25;
      }

      .st2 {
        stroke-width: 3px;
      }

      .st2, .st9, .st4, .st5 {
        fill: none;
      }

      .st9 {
        stroke: #000;
        stroke-linecap: square;
        stroke-miterlimit: 3.25;
      }

      .st9, .st5, .st6 {
        stroke-width: 1.5px;
      }

      .st3, .st6, .st7 {
        fill: #d5ab84;
      }

      .st4, .st7 {
        stroke-width: 2px;
      }

      .st10 {
        fill: #487312;
      }

      .st11, .st12 {
        fill: #173c01;
      }

      .st13 {
        fill: #593c25;
      }

      .st12, .st14 {
        fill-opacity: .5;
      }

      .st14 {
        fill: #f8fa7d;
      }

      .st15 {
        clip-path: url(#clippath);
      }

      .st16 {
        opacity: .5;
      }

      .st17 {
        fill: #dff2fe;
      }
    </style>
    <clipPath id="clippath">
      <path class="st13" d="M-7.541,180h44.382c2.581,0,4.688,2.049,4.775,4.629,1.171,35.043,15.602,68.405,40.478,93.277,25.965,25.969,61.183,40.555,97.906,40.555s71.941-14.586,97.906-40.555c24.876-24.872,39.307-58.235,40.478-93.277.086-2.58,2.193-4.629,4.775-4.629h45.376v185H-7.541v-185Z"/>
    </clipPath>
  </defs>
  <rect class="st17" x="-4.438" y="-4.438" width="368.877" height="368.877"/>
  <path class="st10" d="M37.997,180.148l13.126,3.528c3.315.771,5.373,3.006,5.624,5.575,3.478,35.62,16.472,68.784,41.348,93.656,25.965,25.969,61.183,35.138,97.906,35.138s71.941-9.169,97.906-35.138c24.876-24.872,39.307-58.235,40.478-93.277.086-2.58,2.193-4.629,4.775-4.629h36.842v180H16.001l21.996-184.853Z"/>
  <g id="Wheel">
    <path class="st8" d="M284.263,189.497c-11.044-5.276-23.735-5.946-35.273-1.867s-20.988,12.579-26.263,23.626c-5.275,11.048-5.946,23.735-1.865,35.277s12.579,20.987,23.625,26.259c11.047,5.275,23.735,5.946,35.277,1.865s20.987-12.579,26.259-23.625c5.276-11.044,5.946-23.735,1.867-35.273s-12.579-20.987-23.626-26.263ZM299.387,247.864c-4.432,9.286-12.376,16.431-22.076,19.861s-20.37,2.867-29.657-1.568c-9.286-4.432-16.431-12.376-19.861-22.076s-2.866-20.369,1.568-29.657c4.435-9.287,12.376-16.431,22.079-19.862s20.369-2.866,29.654,1.569c9.287,4.435,16.431,12.376,19.862,22.079s2.866,20.369-1.569,29.654Z"/>
    <path class="st13" d="M270.694,219.552c-2.985-1.426-6.416-1.608-9.536-.505s-5.674,3.401-7.1,6.387c-1.426,2.986-1.608,6.416-.504,9.537s3.401,5.674,6.387,7.099c2.986,1.426,6.417,1.608,9.537.504s5.674-3.401,7.099-6.387c1.426-2.985,1.608-6.416.505-9.536s-3.401-5.674-6.387-7.1ZM270.747,233.404c-.687,1.44-1.919,2.548-3.423,3.08s-3.159.445-4.599-.243c-1.44-.687-2.548-1.919-3.08-3.423s-.445-3.159.243-4.599c.688-1.44,1.919-2.548,3.424-3.08s3.159-.444,4.599.243c1.44.688,2.548,1.919,3.08,3.424s.444,3.159-.243,4.599Z"/>
    <path class="st13" d="M268.475,219.276c-2.985-1.426-6.416-1.608-9.536-.505s-5.674,3.401-7.1,6.387c-1.426,2.986-1.608,6.416-.504,9.537s3.401,5.674,6.387,7.099c2.986,1.426,6.417,1.608,9.537.504s5.674-3.401,7.099-6.387c1.426-2.985,1.608-6.416.505-9.536s-3.401-5.674-6.387-7.1ZM268.528,233.128c-.687,1.44-1.919,2.548-3.423,3.08s-3.159.445-4.599-.243c-1.44-.687-2.548-1.919-3.08-3.423s-.445-3.159.243-4.599c.688-1.44,1.919-2.548,3.424-3.08s3.159-.444,4.599.243c1.44.688,2.548,1.919,3.08,3.424s.444,3.159-.243,4.599Z"/>
    <path class="st13" d="M256.428,219.314l-8.338-23.579c-.167-.473.062-1,.527-1.19.51-.209,1.025-.408,1.547-.592s1.045-.353,1.572-.511c.481-.144.991.121,1.158.595l8.338,23.579c.103.292-.083.596-.388.652-.643.117-1.281.283-1.905.504s-1.225.492-1.8.806c-.272.148-.608.029-.711-.263ZM251.335,234.695c-.221-.625-.388-1.262-.505-1.906-.055-.304-.36-.491-.652-.388l-23.579,8.338c-.473.167-.739.677-.595,1.158.158.528.327,1.053.512,1.575s.383,1.035.591,1.544c.19.465.717.694,1.19.527l23.579-8.338c.292-.103.411-.439.263-.711-.314-.574-.585-1.174-.805-1.799ZM250.448,227.317c.279.133.602-.02.689-.317.184-.628.417-1.244.703-1.842.286-.598.618-1.166.991-1.704.176-.254.093-.601-.187-.735l-22.568-10.777c-.453-.216-1.001-.044-1.239.398-.261.485-.513.975-.751,1.474-.238.499-.461,1.003-.674,1.511-.194.463.016.998.469,1.214l22.567,10.777ZM268.475,219.276c.598.286,1.166.618,1.704.991.254.176.601.093.735-.187l10.777-22.568c.216-.453.044-1.001-.398-1.239-.485-.261-.975-.513-1.474-.751-.499-.238-1.003-.461-1.511-.675-.463-.194-.998.016-1.214.469l-10.777,22.568c-.133.279.02.602.317.689.628.184,1.244.417,1.842.703ZM257.722,241.794c-.598-.285-1.166-.618-1.704-.991-.254-.176-.601-.093-.735.187l-10.777,22.568c-.216.453-.044,1.001.398,1.239.485.261.975.513,1.474.751.499.238,1.003.461,1.511.674.463.194.998-.016,1.214-.469l10.777-22.568c.133-.279-.02-.602-.317-.689-.628-.184-1.244-.417-1.842-.703ZM275.749,233.753c-.279-.133-.602.02-.689.317-.184.628-.417,1.244-.703,1.842-.285.598-.618,1.166-.991,1.704-.176.254-.093.601.187.735l22.568,10.777c.453.216,1.001.044,1.239-.398.261-.485.513-.975.751-1.474.238-.499.461-1.003.675-1.511.194-.463-.016-.998-.469-1.214l-22.568-10.777ZM267.258,242.298c-.625.221-1.262.388-1.906.505-.304.055-.491.36-.388.652l8.338,23.579c.167.473.677.739,1.158.595.528-.158,1.053-.327,1.575-.512s1.035-.383,1.544-.591c.465-.19.694-.717.527-1.19l-8.338-23.579c-.103-.292-.439-.411-.711-.263-.574.314-1.174.585-1.799.805ZM299.088,216.054c-.19-.465-.717-.694-1.19-.527l-23.579,8.338c-.292.103-.411.439-.263.711.314.574.585,1.175.806,1.8s.387,1.262.504,1.905c.055.304.36.491.652.388l23.579-8.338c.473-.167.739-.677.595-1.158-.158-.527-.327-1.051-.511-1.572s-.384-1.037-.592-1.547Z"/>
    <path class="st3" d="M253.876,218.095l-8.338-23.579c-.167-.473.062-1,.527-1.19.51-.209,1.025-.408,1.547-.592s1.045-.353,1.572-.511c.481-.144.991.121,1.158.595l8.338,23.579c.103.292-.083.596-.388.652-.643.117-1.281.283-1.905.504s-1.225.492-1.8.806c-.272.148-.608.029-.711-.263ZM248.782,233.476c-.221-.625-.388-1.262-.505-1.906-.055-.304-.36-.491-.652-.388l-23.579,8.338c-.473.167-.739.677-.595,1.158.158.528.327,1.053.512,1.575s.383,1.035.591,1.544c.19.465.717.694,1.19.527l23.579-8.338c.292-.103.411-.439.263-.711-.314-.574-.585-1.174-.805-1.799ZM247.895,226.098c.279.133.602-.02.689-.317.184-.628.417-1.244.703-1.842.286-.598.618-1.166.991-1.704.176-.254.093-.601-.187-.735l-22.568-10.777c-.453-.216-1.001-.044-1.239.398-.261.485-.513.975-.751,1.474-.238.499-.461,1.003-.674,1.511-.194.463.016.998.469,1.214l22.567,10.777ZM265.922,218.057c.598.286,1.166.618,1.704.991.254.176.601.093.735-.187l10.777-22.568c.216-.453.044-1.001-.398-1.239-.485-.261-.975-.513-1.474-.751-.499-.238-1.003-.461-1.511-.675-.463-.194-.998.016-1.214.469l-10.777,22.568c-.133.279.02.602.317.689.628.184,1.244.417,1.842.703ZM255.169,240.575c-.598-.285-1.166-.618-1.704-.991-.254-.176-.601-.093-.735.187l-10.777,22.568c-.216.453-.044,1.001.398,1.239.485.261.975.513,1.474.751.499.238,1.003.461,1.511.674.463.194.998-.016,1.214-.469l10.777-22.568c.133-.279-.02-.602-.317-.689-.628-.184-1.244-.417-1.842-.703ZM273.196,232.534c-.279-.133-.602.02-.689.317-.184.628-.417,1.244-.703,1.842-.285.598-.618,1.166-.991,1.704-.176.254-.093.601.187.735l22.568,10.777c.453.216,1.001.044,1.239-.398.261-.485.513-.975.751-1.474.238-.499.461-1.003.675-1.511.194-.463-.016-.998-.469-1.214l-22.568-10.777ZM264.706,241.079c-.625.221-1.262.388-1.906.505-.304.055-.491.36-.388.652l8.338,23.579c.167.473.677.739,1.158.595.528-.158,1.053-.327,1.575-.512s1.035-.383,1.544-.591c.465-.19.694-.717.527-1.19l-8.338-23.579c-.103-.292-.439-.411-.711-.263-.574.314-1.174.585-1.799.805ZM296.535,214.836c-.19-.465-.717-.694-1.19-.527l-23.579,8.338c-.292.103-.411.439-.263.711.314.574.585,1.175.806,1.8s.387,1.262.504,1.905c.055.304.36.491.652.388l23.579-8.338c.473-.167.739-.677.595-1.158-.158-.527-.327-1.051-.511-1.572s-.384-1.037-.592-1.547Z"/>
    <path class="st7" d="M265.922,218.057c-2.985-1.426-6.416-1.608-9.536-.505s-5.674,3.401-7.1,6.387c-1.426,2.986-1.608,6.416-.504,9.537s3.401,5.674,6.387,7.099c2.986,1.426,6.417,1.608,9.537.504s5.674-3.401,7.099-6.387c1.426-2.985,1.608-6.416.505-9.536s-3.401-5.674-6.387-7.1ZM265.975,231.909c-.687,1.44-1.919,2.548-3.423,3.08s-3.159.445-4.599-.243c-1.44-.687-2.548-1.919-3.08-3.423s-.445-3.159.243-4.599c.688-1.44,1.919-2.548,3.424-3.08s3.159-.444,4.599.243c1.44.688,2.548,1.919,3.08,3.424s.444,3.159-.243,4.599Z"/>
    <path class="st6" d="M280.434,187.668c-11.044-5.276-23.735-5.946-35.273-1.867s-20.988,12.579-26.263,23.626c-5.275,11.048-5.946,23.735-1.865,35.277s12.579,20.987,23.625,26.259c11.047,5.275,23.735,5.946,35.277,1.865s20.987-12.579,26.259-23.625c5.276-11.044,5.946-23.735,1.867-35.273s-12.579-20.987-23.626-26.263ZM295.558,246.036c-4.432,9.286-12.376,16.431-22.076,19.861s-20.37,2.867-29.657-1.568c-9.286-4.432-16.431-12.376-19.861-22.076s-2.866-20.369,1.568-29.657c4.435-9.287,12.376-16.431,22.079-19.862s20.369-2.866,29.654,1.569c9.287,4.435,16.431,12.376,19.862,22.079s2.866,20.369-1.569,29.654Z"/>
  </g>
  <g id="Ground">
    <path class="st13" d="M-7.541,180h44.382c2.581,0,4.688,2.049,4.775,4.629,1.171,35.043,15.602,68.405,40.478,93.277,25.965,25.969,61.183,40.555,97.906,40.555s71.941-14.586,97.906-40.555c24.876-24.872,39.307-58.235,40.478-93.277.086-2.58,2.193-4.629,4.775-4.629h45.376v185H-7.541v-185Z"/>
    <g class="st15">
      <path class="st12" d="M-6.955,208.818c32.613-12.866,30.25.573,40.767,18.038,12.812,21.278,6.008,33.073,19.801,53.171,18.416,26.835,47.111,31.774,62.103,43.41,34.191,26.539,84.257,11.93,114.158,10.789,42.708-1.629,55.874-33.912,80.955-47.265,22.699-12.085,25.012-67.213,37.82-75.41s41.969-3.222,48.117-3.734,5.416-62.355,5.416-62.355L-16.121,124.458v61.99l9.165,22.37Z"/>
      <g class="st16">
        <line class="st9" x1="334.402" y1="272.52" x2="272.52" y2="334.402"/>
        <line class="st9" x1="349.469" y1="240.672" x2="240.672" y2="349.469"/>
        <line class="st9" x1="356.102" y1="217.25" x2="217.25" y2="356.102"/>
        <line class="st9" x1="359.156" y1="197.414" x2="197.414" y2="359.156"/>
        <line class="st9" x1="360" y1="179.785" x2="179.785" y2="360"/>
        <line class="st9" x1="359.266" y1="163.738" x2="163.738" y2="359.266"/>
        <line class="st9" x1="357.297" y1="148.922" x2="148.922" y2="357.297"/>
        <line class="st9" x1="354.316" y1="135.117" x2="135.117" y2="354.316"/>
        <line class="st9" x1="350.461" y1="122.187" x2="122.188" y2="350.461"/>
        <line class="st9" x1="345.84" y1="110.023" x2="110.023" y2="345.84"/>
        <line class="st9" x1="340.523" y1="98.559" x2="98.559" y2="340.523"/>
        <line class="st9" x1="334.559" y1="87.738" x2="87.738" y2="334.559"/>
        <line class="st9" x1="327.984" y1="77.527" x2="77.527" y2="327.984"/>
        <line class="st9" x1="320.832" y1="67.898" x2="67.898" y2="320.832"/>
        <line class="st9" x1="313.113" y1="58.832" x2="58.832" y2="313.113"/>
        <line class="st9" x1="304.836" y1="50.324" x2="50.324" y2="304.836"/>
        <line class="st9" x1="296.008" y1="42.367" x2="42.367" y2="296.008"/>
        <line class="st9" x1="286.617" y1="34.973" x2="34.973" y2="286.617"/>
        <line class="st9" x1="276.656" y1="28.152" x2="28.152" y2="276.656"/>
        <line class="st9" x1="266.098" y1="21.926" x2="21.926" y2="266.098"/>
        <line class="st9" x1="254.91" y1="16.328" x2="16.328" y2="254.91"/>
        <line class="st9" x1="243.051" y1="11.406" x2="11.406" y2="243.051"/>
        <line class="st9" x1="230.457" y1="7.215" x2="7.215" y2="230.457"/>
        <line class="st9" x1="217.035" y1="3.852" x2="3.852" y2="217.035"/>
        <line class="st9" x1="202.672" y1="1.434" x2="1.434" y2="202.672"/>
        <line class="st9" x1="187.176" y1=".145" x2=".145" y2="187.176"/>
        <line class="st9" x1="170.273" y1=".262" x2=".262" y2="170.273"/>
        <line class="st9" x1="151.477" y1="2.273" x2="2.273" y2="151.477"/>
        <line class="st9" x1="129.836" y1="7.133" x2="7.133" y2="129.836"/>
        <line class="st9" x1="102.777" y1="17.406" x2="17.406" y2="102.777"/>
      </g>
      <g>
        <path class="st0" d="M163.403,335.259c-22.853,0-40.541-5.106-54.075-15.612-5.051-3.92-11.69-7.122-18.72-10.511-14.534-7.007-31.008-14.95-43.171-32.675-7.009-10.213-8.595-18.164-10.274-26.582-1.579-7.917-3.211-16.104-9.495-26.539-1.935-3.214-3.457-6.349-4.801-9.115-3.939-8.111-7.051-14.519-16.751-14.519-4.813,0-11.033,1.535-19.519,4.821l-8.718-21.277v-60.742l416.311,20.905c.027,3.536.084,16.496-.391,29.476-1.067,29.138-3.817,30.835-4.127,30.933-.28.022-.626.033-1.024.033-1.582,0-4.016-.171-6.834-.369-4.458-.313-10.008-.702-15.769-.702-11.602,0-19.758,1.611-24.936,4.924-5.747,3.678-9.298,15.624-13.411,29.457-5.456,18.351-11.64,39.151-24.34,45.913-8.651,4.606-15.771,11.308-23.31,18.404-14.459,13.61-29.41,27.684-57.213,28.744-6.614.252-14.253,1.165-22.34,2.131-11.383,1.36-24.285,2.901-37.092,2.901Z"/>
        <path class="st11" d="M-21.121,123.56l414.317,20.805c.025,4.344.041,15.589-.348,27.103-.86,25.439-2.936,30.423-3.607,31.377-.176.007-.374.01-.594.01-1.547,0-3.965-.17-6.764-.366-4.474-.314-10.042-.705-15.838-.705-11.799,0-20.131,1.662-25.475,5.082-6.06,3.878-9.661,15.99-13.83,30.015-5.4,18.163-11.52,38.75-23.851,45.315-8.769,4.668-15.937,11.415-23.525,18.558-14.325,13.484-29.137,27.427-56.566,28.473-6.654.254-14.313,1.169-22.421,2.137-11.355,1.357-24.226,2.894-36.974,2.894-22.622,0-40.11-5.038-53.462-15.402-5.134-3.985-11.82-7.209-18.899-10.622-14.422-6.953-30.768-14.835-42.781-32.34-6.893-10.044-8.459-17.897-10.117-26.211-1.596-8.001-3.246-16.275-9.619-26.86-1.912-3.175-3.424-6.288-4.758-9.035-4.092-8.426-7.324-15.082-17.651-15.082-4.763,0-10.822,1.446-18.964,4.537l-8.272-20.19v-59.493M-23.121,121.457v61.99l9.165,22.37c9.035-3.564,15.387-5.11,20.071-5.11,12.223,0,13.093,10.522,20.696,23.149,12.812,21.279,6.008,33.073,19.801,53.171,18.416,26.835,47.111,31.774,62.103,43.41,15.985,12.408,35.446,15.822,54.688,15.822,21.915,0,43.549-4.425,59.47-5.033,42.708-1.629,55.874-33.912,80.955-47.265,22.699-12.085,25.012-67.213,37.82-75.41,5.929-3.794,15.364-4.766,24.397-4.766,9.482,0,18.521,1.071,22.602,1.071.43,0,.804-.012,1.118-.038,6.148-.512,5.416-62.355,5.416-62.355L-23.121,121.457h0Z"/>
      </g>
      <path class="st14" d="M79.201,291.205c-31.356-24.224-35-48.585-35.774-47.583s1.613,26.99,32.969,51.214c31.356,24.224,65.286,31.381,64.645,28.948-.294-1.116-30.483-8.354-61.839-32.579Z"/>
    </g>
  </g>
  <g id="LaTeX">
    <line class="st5" x1="318.437" y1="180" x2="318.437" y2="108.449"/>
    <line class="st5" x1="41.539" y1="108.449" x2="41.539" y2="180"/>
    <g>
      <line class="st2" x1="307.154" y1="131.63" x2="52.822" y2="131.63"/>
      <polygon class="st8" points="301.846 124.631 304.819 131.63 301.846 138.629 318.437 131.63 301.846 124.631"/>
      <polygon class="st8" points="58.13 124.631 55.157 131.63 58.13 138.629 41.539 131.63 58.13 124.631"/>
    </g>
    <path class="st1" d="M167.281,112.274c.809,0,3.236,0,3.494-.294.368-.552.625-2.17.809-3.273h.919l-1.03,6.399h-13.644c0-.883,0-.956.404-1.361l7.061-7.87c2.023-2.28,3.862-5.186,3.862-8.128,0-3.016-1.581-5.995-4.928-5.995-2.133,0-4.119,1.361-4.965,3.751l.478-.037c1.287,0,1.949.956,1.949,1.912,0,1.508-1.287,1.949-1.912,1.949-.11,0-1.949,0-1.949-2.06,0-3.273,2.722-6.657,6.877-6.657,4.487,0,7.797,2.942,7.797,7.135,0,3.678-2.207,5.664-7.944,10.739l-3.898,3.788h6.62ZM196.924,106.942c0,.515-.073,1.214-.147,1.728-.147,1.177-.368,3.053-.368,4.193,0,1.434.257,2.243,1.471,2.243.846,0,2.427-.625,3.347-3.347l.478-.515c.037,0,.441,0,.441.441,0,.515-1.287,4.229-4.413,4.229-.478,0-4.891,0-4.891-3.972,0-.736.331-2.096.588-3.126.221-.846.515-1.986.515-2.538,0-1.287-.662-3.347-4.009-3.347h-4.377l-2.427,9.746-.11.625c0,.662,1.03.662,2.39.662.699,0,1.03,0,1.03.405,0,.736-.441.736-.736.736-1.03,0-3.641-.11-4.671-.11s-3.604.11-4.634.11c-.074,0-.515,0-.515-.405,0-.736.331-.736.993-.736,2.905,0,2.979-.294,3.347-1.728l4.928-19.75c.11-.441.147-.551.147-.699,0-.478-.331-.515-.993-.588-.625-.073-1.324-.073-1.398-.073-.699,0-1.03,0-1.03-.405,0-.736.331-.736,1.066-.736h10.482c4.818,0,8.128,2.354,8.128,5.517,0,3.714-4.377,6.289-8.091,7.098.993.368,3.457,1.508,3.457,4.34ZM185.78,102.124h4.119c3.31,0,5.259-1.177,6.215-2.133,1.434-1.434,2.023-3.972,2.023-5.222,0-3.641-4.082-3.641-6.694-3.641-.736,0-1.912,0-2.243.037-.699.11-.809.478-1.03,1.361l-2.391,9.599Z"/>
    <g>
      <line class="st4" x1="124.914" y1="187.398" x2="124.914" y2="228.47"/>
      <polygon class="st8" points="119.359 224.257 124.914 226.617 130.469 224.257 124.914 237.424 119.359 224.257"/>
    </g>
    <path class="st1" d="M106.958,212.624c-.221.956-1.067,1.876-1.876,2.574-.772.662-1.912,1.324-2.979,1.324-1.839,0-2.391-1.913-2.391-3.384,0-1.765,1.067-6.105,2.06-7.981.993-1.802,2.574-3.273,4.119-3.273,2.427,0,2.942,2.979,2.942,3.163l-.11.551-1.765,7.025ZM111.739,203.466l.11-.662c0-.625-.441-.993-1.066-.993-.368,0-1.361.257-1.508,1.581-.662-1.361-1.949-2.317-3.42-2.317-4.193,0-8.753,5.149-8.753,10.445,0,3.641,2.243,5.811,4.891,5.811,2.17,0,3.898-1.729,4.266-2.133l.037.037c-.772,3.273-1.214,4.781-1.214,4.855-.147.331-1.398,3.972-5.296,3.972-.699,0-1.912-.037-2.942-.368,1.103-.331,1.508-1.287,1.508-1.912,0-.588-.404-1.287-1.397-1.287-.809,0-1.986.662-1.986,2.133,0,1.508,1.361,2.243,4.891,2.243,4.597,0,7.245-2.869,7.797-5.075l4.082-16.329ZM112.586,195.449c-.515.478-1.729,1.508-1.729,2.17,0,.368.368.736.736.736l.699-.478c.441-.552,1.287-1.581,2.905-2.391.257-.147.625-.331.625-.772,0-.368-.257-.551-.515-.736-.809-.552-1.214-1.214-1.508-2.096-.074-.331-.221-.809-.736-.809s-.736.478-.736.772c0,.184.294,1.361.883,2.133h-12.394c-.625,0-1.287,0-1.287.736s.662.736,1.287.736h11.769Z"/>
  </g>
  <circle class="st13" cx="180" cy="180" r="2.5"/>
</svg>