<?xml version="1.0" encoding="UTF-8"?>
<svg id="Layer_1" xmlns="http://www.w3.org/2000/svg" version="1.1" xmlns:xlink="http://www.w3.org/1999/xlink" viewBox="0 0 180 180">
  <!-- Generator: Adobe Illustrator 29.8.2, SVG Export Plug-In . SVG Version: 2.1.1 Build 3)  -->
  <defs>
    <style>
      .st0 {
        fill-opacity: .5;
      }

      .st0, .st1, .st2 {
        fill: #fff;
      }

      .st3 {
        fill: none;
      }

      .st4 {
        fill: #70c947;
      }

      .st2 {
        stroke: #000;
      }

      .st2, .st5 {
        stroke-miterlimit: 10;
        stroke-width: 2px;
      }

      .st5 {
        fill: #d5ab84;
        stroke: #593c25;
      }

      .st6 {
        fill: #479630;
      }

      .st7 {
        fill: url(#linear-gradient);
      }

      .st8 {
        clip-path: url(#clippath);
      }
    </style>
    <linearGradient id="linear-gradient" x1="-70.62" y1="162.77" x2="46.49" y2="129.31" gradientTransform="translate(217.93 122.33) rotate(-96.04) scale(.97 -.93) skewX(-.5)" gradientUnits="userSpaceOnUse">
      <stop offset=".18" stop-color="#000"/>
      <stop offset="1" stop-color="#000" stop-opacity="0"/>
    </linearGradient>
    <clipPath id="clippath">
      <circle class="st3" cx="119.89" cy="121.28" r="38.57"/>
    </clipPath>
  </defs>
  <ellipse id="drop-shadow" class="st7" cx="84.77" cy="148.4" rx="16.91" ry="58.18" transform="translate(-71.11 218.48) rotate(-84.47)"/>
  <g id="ball">
    <circle id="self-shadow" class="st6" cx="119.89" cy="121.28" r="38.57"/>
    <g class="st8">
      <ellipse class="st4" cx="128.73" cy="115.59" rx="36.52" ry="37.53" transform="translate(-44.03 124.88) rotate(-45)"/>
      <path id="reflection" class="st0" d="M108.62,100.29c-.3,2.85-.4,6.01-.23,9.33-2.79.65-5.51,1.31-8.14,2,.1-3.36.57-6.58,1.35-9.52,2.28-.63,4.64-1.24,7.03-1.81h-.02Z"/>
      <ellipse id="highlight" class="st1" cx="139.06" cy="106.04" rx="2.97" ry="3.84" transform="translate(-35.78 102.45) rotate(-36.15)"/>
    </g>
  </g>
  <g>
    <circle id="stroked" class="st5" cx="146.21" cy="36.52" r="21.95"/>
    <circle id="disk" cx="90" cy="36.52" r="21.95"/>
    <circle id="circle" class="st2" cx="33.79" cy="36.52" r="21.95"/>
  </g>
</svg>