<?xml version="1.0" encoding="UTF-8"?>
<svg id="Layer_1" xmlns="http://www.w3.org/2000/svg" version="1.1" viewBox="0 0 184.2 183.4">
  <!-- Generator: Adobe Illustrator 29.8.2, SVG Export Plug-In . SVG Version: 2.1.1 Build 3)  -->
  <defs>
    <style>
      .st0 {
        fill: #70c947;
      }

      .st1 {
        fill: #d5ab84;
        stroke-linejoin: round;
      }

      .st1, .st2 {
        stroke: #000;
        stroke-width: 1.5px;
      }

      .st3 {
        stroke: #fff;
        stroke-linecap: round;
        stroke-width: 2px;
      }

      .st3, .st2 {
        stroke-miterlimit: 10;
      }

      .st2 {
        fill: #593c25;
      }
    </style>
  </defs>
  <g id="Layer_11" data-name="Layer_1">
    <g id="Layer_1-2">
      <path class="st2" d="M164,91.9c0,7.8-31.9,14.2-71.3,14.2s-71.3-6.3-71.3-14.2,31.9-14.2,71.3-14.2,71.3,6.3,71.3,14.2Z"/>
      <g>
        <path d="M55.6,68.1s.5-25.6,5.5-26.2c5-.6,10.1,14.7,12.2,21.5,8.1-2.9,11.4-.9,15.1.2,2.3-6.9,6.2-23.1,12.7-22.3s5.2,26.3,5.5,29.4c2.6,2.4,4.9,8.6,4.9,11.5,0,6.7-14,14.2-31.3,14.7-17.3.5-33.6-5.3-33.9-14.5-.3-9.2,9.3-14.3,9.3-14.3Z"/>
        <path d="M49.8,92.4c-6.3,4-7.6,17.8-.8,24.9,7.8,8.1,28,8.3,50.9,8.1,22.3-.2,46.4-7.7,46.5-19.6.1-16-15.9-22.8-21.9-22.8-14.9,0-30.6,3.6-37.7,5.4s-31.2.3-37,4h0Z"/>
        <path class="st0" d="M73.3,79.6c0,3.9-3.1,7-7,7s-7-3.1-7-7,3.4-7,7-7,7,3.1,7,7Z"/>
        <path class="st0" d="M100,81c0,4.1-3.3,7.3-7.3,7.3s-7.3-3.3-7.3-7.3,3.3-7.3,7.3-7.3,7.3,3.3,7.3,7.3Z"/>
        <path class="st3" d="M129.9,99.1c2.4,5.1-7,11.9-18.6,13.2-11.5,1.3-15.9,3.2-15.9,7.6s8,6.1,13.2,5.5"/>
      </g>
      <path class="st1" d="M92.7,106.1c-37.8,0-68.7-5.8-71.1-13.2h0l10,33.2h0c1.6,6.4,28.3,11.5,61.1,11.5s59.5-5.1,61.1-11.5h0l10.1-33.2h0c-2.4,7.4-33.3,13.2-71.1,13.2h-.1Z"/>
    </g>
  </g>
</svg>