<?xml version="1.0" encoding="UTF-8"?>
<svg id="Layer_1" xmlns="http://www.w3.org/2000/svg" version="1.1" viewBox="0 0 180 180">
  <!-- Generator: Adobe Illustrator 29.8.2, SVG Export Plug-In . SVG Version: 2.1.1 Build 3)  -->
  <defs>
    <style>
      .st0 {
        stroke-width: .25px;
      }

      .st0, .st1 {
        stroke: #000;
      }

      .st2 {
        fill: #fff;
      }

      .st3 {
        fill: #70c947;
      }

      .st4 {
        fill: #479630;
      }

      .st1 {
        fill: none;
        stroke-miterlimit: 10;
        stroke-width: 1.5px;
      }

      .st5 {
        fill: #d5ab84;
      }

      .st6 {
        fill: #593c25;
      }
    </style>
  </defs>
  <g>
    <line class="st1" x1="13.91" y1="64.17" x2="37.13" y2="64.17"/>
    <line class="st1" x1="13.91" y1="69.19" x2="26.73" y2="69.19"/>
    <line class="st1" x1="13.91" y1="164.61" x2="26.73" y2="164.61"/>
    <line class="st1" x1="13.91" y1="144.52" x2="26.73" y2="144.52"/>
    <line class="st1" x1="13.91" y1="74.21" x2="39.54" y2="74.21"/>
    <line class="st1" x1="13.91" y1="134.47" x2="39.54" y2="134.47"/>
    <line class="st1" x1="13.91" y1="79.23" x2="36.61" y2="79.23"/>
    <line class="st1" x1="13.91" y1="84.26" x2="16.98" y2="84.26"/>
    <line class="st1" x1="13.91" y1="149.53" x2="16.98" y2="149.53"/>
    <line class="st1" x1="13.91" y1="129.45" x2="16.98" y2="129.45"/>
    <line class="st1" x1="13.91" y1="89.28" x2="25.26" y2="89.28"/>
    <line class="st1" x1="13.91" y1="139.49" x2="25.26" y2="139.49"/>
    <line class="st1" x1="13.91" y1="94.3" x2="20.32" y2="94.3"/>
    <line class="st1" x1="13.91" y1="99.32" x2="39.54" y2="99.32"/>
    <line class="st1" x1="13.91" y1="159.58" x2="36.61" y2="159.58"/>
    <line class="st1" x1="13.91" y1="104.34" x2="28.6" y2="104.34"/>
    <line class="st1" x1="13.91" y1="109.36" x2="34.2" y2="109.36"/>
    <line class="st1" x1="13.91" y1="114.38" x2="19.58" y2="114.38"/>
    <line class="st1" x1="13.91" y1="154.56" x2="19.58" y2="154.56"/>
    <line class="st1" x1="13.91" y1="119.41" x2="36.06" y2="119.41"/>
    <line class="st1" x1="13.91" y1="124.43" x2="27.79" y2="124.43"/>
  </g>
  <g>
    <path class="st5" d="M114.03,115.65l-17.34,50.36c-27.81-9.58-42.59-39.89-33.02-67.7,7.54-21.89,27.21-35.92,50.36-35.92,0,0,0,53.26,0,53.26Z"/>
    <path class="st6" d="M114.03,115.65l45.17-28.22c15.59,24.94,8,57.8-16.94,73.39-14.07,8.79-29.88,10.59-45.56,5.19l17.34-50.36h0Z"/>
    <path class="st3" d="M114.03,115.65l25-47.03c8.7,4.63,14.94,10.45,20.16,18.8l-45.17,28.22h0Z"/>
    <path class="st4" d="M114.03,115.65l18.22-50.05c2.46.9,4.48,1.79,6.79,3.02l-25,47.03h0Z"/>
    <path class="st2" d="M114.03,115.65v-53.26c6.56,0,12.05.97,18.22,3.21,0,0-18.22,50.05-18.22,50.05Z"/>
  </g>
  <g>
    <path class="st0" d="M21.93,32.99c.32-.78.32-.83.59-1.56.21-.54.35-.91.35-1.42,0-1.21-.86-2.2-2.2-2.2-2.52,0-3.54,3.89-3.54,4.13,0,.27.27.27.32.27.27,0,.3-.05.43-.48.72-2.52,1.8-3.33,2.71-3.33.21,0,.67,0,.67.86,0,.56-.19,1.13-.3,1.39-.21.7-1.42,3.81-1.85,4.96-.27.7-.62,1.58-.62,2.15,0,1.26.91,2.2,2.2,2.2,2.52,0,3.51-3.89,3.51-4.13,0-.27-.24-.27-.32-.27-.27,0-.27.08-.4.48-.48,1.69-1.37,3.33-2.74,3.33-.46,0-.64-.27-.64-.89,0-.67.16-1.05.78-2.68l1.05-2.82h0ZM23.97,22.91c0-.54-.38-.97-.99-.97-.72,0-1.45.7-1.45,1.42,0,.51.38.97,1.02.97s1.42-.62,1.42-1.42Z"/>
    <rect class="st0" x="27.45" y="23.85" width="9.68" height=".83"/>
    <path class="st0" d="M33.29,21.35s0-.3-.35-.3c-.62,0-2.57.21-3.27.27-.21.03-.51.05-.51.54,0,.32.24.32.64.32,1.29,0,1.34.19,1.34.46l-.08.54-3.89,15.45c-.11.38-.11.43-.11.59,0,.62.54.75.78.75.43,0,.86-.32.99-.7l.51-2.04.59-2.41c.16-.59.32-1.18.46-1.8.05-.16.27-1.05.3-1.21.08-.24.91-1.74,1.82-2.47.59-.43,1.42-.94,2.57-.94s1.45.91,1.45,1.88c0,1.45-1.02,4.37-1.66,6.01-.21.62-.35.94-.35,1.48,0,1.26.94,2.2,2.2,2.2,2.52,0,3.51-3.92,3.51-4.13,0-.27-.24-.27-.32-.27-.27,0-.27.08-.4.48-.4,1.42-1.26,3.33-2.74,3.33-.46,0-.64-.27-.64-.89,0-.67.24-1.31.48-1.9.43-1.15,1.64-4.34,1.64-5.9,0-1.74-1.07-2.87-3.08-2.87-1.69,0-2.98.83-3.97,2.07l2.09-8.53h0Z"/>
    <path class="st0" d="M52.52,28.94c-2.19,0-2.31-1.86-2.31-2.25,0-.76.57-2.84.76-3.33.51-1.16,1.72-2.64,3.6-2.64,1.64,0,2.35,1.25,2.35,2.62,0,1.51-1.37,5.6-4.41,5.6h.01ZM57.32,22.38c-.27-1.06-1.02-2.21-2.8-2.21s-3.03.86-3.97,1.66c-1.98,1.7-1.98,3.97-1.98,4.15,0,1.21.94,3.54,3.92,3.54,1.63,0,3.37-.8,4.7-2.6,1.29-1.76,2.25-4.66,2.25-6.62,0-3.17-1.98-5.19-4.58-5.19-3.02,0-3.92,2.51-3.92,3.11,0,.47.35.72.76.72.63,0,1.1-.57,1.1-1.08,0-.25-.06-.7-.84-.72.78-1.27,2.08-1.53,2.88-1.53,1.76,0,3.02,1.37,3.02,3.64,0,1.08-.23,2.11-.51,3.11h-.02v.02Z"/>
    <polyline class="st0" points="43.99 32.43 63.63 32.43 63.63 33.5 43.99 33.5"/>
    <path class="st0" d="M60.43,41.13h1.92c.37,0,.61,0,.61-.37,0-.27-.25-.27-.59-.27h-1.78l.7-2.78c.08-.29.08-.39.08-.41,0-.41-.31-.61-.65-.61-.67,0-.8.53-1.02,1.41l-.61,2.39h-1.88c-.37,0-.63,0-.63.37,0,.27.25.27.59.27h1.76l-1.17,4.7c-.12.49-.29,1.17-.29,1.45,0,1.17.96,1.84,2,1.84,2.09,0,3.29-2.76,3.29-3,0-.22-.18-.25-.29-.25-.22,0-.23.08-.37.37-.39.94-1.37,2.33-2.56,2.33-.41,0-.65-.27-.65-.92,0-.37.06-.59.12-.84l1.43-5.68h0ZM48.76,48.74c-2.19,0-2.31-1.86-2.31-2.25,0-.76.57-2.84.76-3.33.51-1.16,1.72-2.64,3.6-2.64,1.64,0,2.35,1.25,2.35,2.62,0,1.51-1.37,5.6-4.41,5.6h.01ZM53.56,42.18c-.27-1.06-1.02-2.21-2.8-2.21s-3.03.86-3.97,1.66c-1.98,1.7-1.98,3.97-1.98,4.15,0,1.21.94,3.54,3.92,3.54,1.63,0,3.37-.8,4.7-2.6,1.29-1.76,2.25-4.66,2.25-6.62,0-3.17-1.98-5.19-4.58-5.19-3.02,0-3.92,2.51-3.92,3.11,0,.47.35.72.76.72.63,0,1.1-.57,1.1-1.08,0-.25-.06-.7-.84-.72.78-1.27,2.08-1.53,2.88-1.53,1.76,0,3.02,1.37,3.02,3.64,0,1.08-.23,2.11-.51,3.11h-.02v.02Z"/>
    <path class="st0" d="M79.49,21.76c.03-.11.08-.27.08-.4,0-.27-.19-.3-.32-.3-.27,0-.3.05-.4.54l-4.45,17.73c-2.04-.24-3.06-1.23-3.06-3,0-.54,0-1.23,1.45-4.99.11-.32.29-.78.29-1.31,0-1.21-.86-2.2-2.2-2.2-2.55,0-3.54,3.89-3.54,4.13,0,.27.27.27.32.27.27,0,.29-.05.43-.48.72-2.55,1.8-3.33,2.71-3.33.21,0,.67,0,.67.86,0,.7-.27,1.37-.62,2.31-1.29,3.38-1.29,4.08-1.29,4.53,0,2.55,2.09,3.65,4.67,3.81-.21.97-.21,1.02-.59,2.44-.08.3-.62,2.47-.62,2.55,0,.03,0,.27.32.27.05,0,.19,0,.24-.11.08-.05.24-.72.32-1.1l1.02-4c.99,0,3.35,0,5.87-2.87,1.1-1.23,1.66-2.41,1.96-3.22.24-.67.83-3,.83-4.18,0-1.5-.72-1.88-1.18-1.88-.67,0-1.34.7-1.34,1.29,0,.35.16.51.4.72.29.3.97.99.97,2.28,0,1.72-1.39,3.92-2.33,4.88-2.36,2.39-4.08,2.39-5.04,2.39l4.43-17.62h0Z"/>
    <path class="st0" d="M110.89,36.11c.38,0,.89,0,.89-.54s-.51-.54-.91-.54h-16.01c-.4,0-.91,0-.91.54s.51.54.89.54h16.06,0ZM110.87,30.9c.4,0,.91,0,.91-.54s-.51-.54-.89-.54h-16.06c-.38,0-.89,0-.89.54s.51.54.91.54h16.02Z"/>
    <polygon class="st0" points="134.47 14.28 130.88 17.93 131.36 18.41 134.47 15.67 137.56 18.41 138.04 17.93 134.47 14.28"/>
    <path class="st0" d="M158.14,21.76c.03-.11.08-.27.08-.4,0-.27-.19-.3-.32-.3-.27,0-.29.05-.4.54l-4.45,17.73c-2.04-.24-3.06-1.23-3.06-3,0-.54,0-1.23,1.45-4.99.11-.32.29-.78.29-1.31,0-1.21-.86-2.2-2.2-2.2-2.55,0-3.54,3.89-3.54,4.13,0,.27.27.27.32.27.27,0,.29-.05.43-.48.72-2.55,1.8-3.33,2.71-3.33.21,0,.67,0,.67.86,0,.7-.27,1.37-.62,2.31-1.29,3.38-1.29,4.08-1.29,4.53,0,2.55,2.09,3.65,4.67,3.81-.21.97-.21,1.02-.59,2.44-.08.3-.62,2.47-.62,2.55,0,.03,0,.27.32.27.05,0,.19,0,.24-.11.08-.05.24-.72.32-1.1l1.02-4c.99,0,3.35,0,5.87-2.87,1.1-1.23,1.66-2.41,1.96-3.22.24-.67.83-3,.83-4.18,0-1.5-.72-1.88-1.18-1.88-.67,0-1.34.7-1.34,1.29,0,.35.16.51.4.72.29.3.97.99.97,2.28,0,1.72-1.39,3.92-2.33,4.88-2.36,2.39-4.08,2.39-5.04,2.39l4.43-17.62h0ZM141.21,23.42c.24-.97.3-1.23,2.25-1.23.7,0,.91,0,.91-.54,0-.3-.3-.3-.38-.3-.75,0-2.68.08-3.43.08s-2.68-.08-3.46-.08c-.21,0-.51,0-.51.54,0,.3.24.3.75.3.05,0,.56,0,1.02.05.48.05.72.08.72.43,0,.11-.03.16-.11.51l-1.61,6.54h-8.18l1.58-6.3c.24-.97.32-1.23,2.25-1.23.7,0,.91,0,.91-.54,0-.3-.29-.3-.38-.3-.75,0-2.68.08-3.43.08s-2.68-.08-3.46-.08c-.21,0-.51,0-.51.54,0,.3.24.3.75.3.05,0,.56,0,1.02.05.48.05.72.08.72.43,0,.11-.03.19-.11.51l-3.59,14.4c-.27,1.05-.32,1.26-2.44,1.26-.48,0-.72,0-.72.54,0,.3.32.3.38.3.75,0,2.66-.08,3.41-.08.56,0,1.15.03,1.72.03s1.18.05,1.74.05c.21,0,.54,0,.54-.54,0-.3-.24-.3-.75-.3-.99,0-1.74,0-1.74-.48,0-.16.05-.3.08-.46l1.82-7.35h8.18c-1.13,4.45-1.74,7-1.85,7.4-.27.86-.78.89-2.44.89-.4,0-.64,0-.64.54,0,.3.32.3.38.3.75,0,2.66-.08,3.41-.08.56,0,1.15.03,1.72.03s1.18.05,1.74.05c.21,0,.54,0,.54-.54,0-.3-.24-.3-.75-.3-.99,0-1.74,0-1.74-.48,0-.16.05-.3.08-.46l3.62-14.48h-.01Z"/>
  </g>
</svg>